<svg width="800" height="100" viewBox="0 0 800 100" xmlns="http://www.w3.org/2000/svg"><mask id="satori_om-id"><rect x="0" y="0" width="800" height="100" fill="#fff"/></mask><rect x="0" y="0" width="800" height="100" fill="transparent"/><mask id="satori_om-id-0"><rect x="267" y="-10" width="37" height="121" fill="#fff"/></mask><g  ><path fill="#6b7280" d="M270.7 56.5L270.7 56.5L270.7 52.1Q276.6 52.1 279.0 49.6Q281.3 47.1 281.3 41.3L281.3 41.3L281.3 29.9Q281.3 25.0 282.3 21.4Q283.2 17.8 285.4 15.5Q287.5 13.1 291.0 12Q294.6 10.9 299.8 10.9L299.8 10.9L299.8 17.8Q295.7 17.8 293.3 19.1Q291.0 20.4 290.0 23.1Q289.0 25.7 289.0 29.9L289.0 29.9L289.0 44.1Q289.0 46.9 288.3 49.1Q287.6 51.4 285.6 53.1Q283.7 54.7 280.1 55.6Q276.4 56.5 270.7 56.5ZM299.8 94.8L299.8 101.8Q294.6 101.8 291.0 100.6Q287.5 99.5 285.4 97.2Q283.2 94.8 282.3 91.2Q281.3 87.6 281.3 82.7L281.3 82.7L281.3 71.4Q281.3 65.6 279.0 63.1Q276.6 60.6 270.7 60.6L270.7 60.6L270.7 56.2Q276.4 56.2 280.1 57.1Q283.7 58.0 285.6 59.6Q287.6 61.2 288.3 63.5Q289.0 65.8 289.0 68.5L289.0 68.5L289.0 82.7Q289.0 86.9 290.0 89.6Q291.0 92.2 293.3 93.5Q295.7 94.8 299.8 94.8L299.8 94.8ZM279.1 60.6L270.7 60.6L270.7 52.1L279.1 52.1L279.1 60.6Z "/></g><mask id="satori_om-id-1"><rect x="304" y="-10" width="75" height="121" fill="#fff"/></mask><g  ><path fill="#66a4de" d="M341.1 30.9L322.9 87L306.4 87L331.5 14.3L351.3 14.3L376.4 87L359.9 87L341.7 30.9L341.1 30.9ZM321.8 70.4L321.8 58.4L360.7 58.4L360.7 70.4L321.8 70.4Z "/></g><mask id="satori_om-id-2"><rect x="379" y="-10" width="73" height="121" fill="#fff"/></mask><g  ><path fill="#1e3a5f" d="M411.1 87L411.1 87L385.3 87L385.3 14.3L411.3 14.3Q422.3 14.3 430.2 18.6Q438.1 23.0 442.4 31.1Q446.7 39.2 446.7 50.6L446.7 50.6Q446.7 61.9 442.4 70.1Q438.1 78.3 430.2 82.6Q422.2 87 411.1 87ZM400.7 27.4L400.7 73.8L410.5 73.8Q417.3 73.8 422.0 71.4Q426.6 69.0 429.0 63.8Q431.3 58.7 431.3 50.6L431.3 50.6Q431.3 42.5 429.0 37.4Q426.6 32.3 422.0 29.9Q417.3 27.4 410.5 27.4L410.5 27.4L400.7 27.4Z "/></g><mask id="satori_om-id-3"><rect x="452" y="-5" width="44" height="111" fill="#fff"/></mask><g  ><path fill="#22c55e" d="M451.9 84L495.9 84L495.9 94.6L451.9 94.6L451.9 84Z "/></g><mask id="satori_om-id-4"><rect x="496" y="-10" width="37" height="121" fill="#fff"/></mask><g  ><path fill="#6b7280" d="M528.5 56.2L528.5 56.2L528.5 60.6Q522.6 60.6 520.2 63.1Q517.9 65.6 517.9 71.4L517.9 71.4L517.9 82.7Q517.9 87.6 516.9 91.2Q516.0 94.8 513.9 97.2Q511.7 99.5 508.2 100.6Q504.6 101.8 499.4 101.8L499.4 101.8L499.4 94.8Q503.5 94.8 505.9 93.5Q508.3 92.2 509.2 89.6Q510.2 86.9 510.2 82.7L510.2 82.7L510.2 68.5Q510.2 65.8 510.9 63.5Q511.7 61.2 513.6 59.6Q515.6 58.0 519.2 57.1Q522.8 56.2 528.5 56.2ZM499.4 17.8L499.4 10.9Q504.6 10.9 508.2 12Q511.7 13.1 513.9 15.5Q516.0 17.8 516.9 21.4Q517.9 25.0 517.9 29.9L517.9 29.9L517.9 41.3Q517.9 47.1 520.2 49.6Q522.6 52.1 528.5 52.1L528.5 52.1L528.5 56.5Q522.8 56.5 519.2 55.6Q515.6 54.7 513.6 53.1Q511.7 51.4 510.9 49.1Q510.2 46.9 510.2 44.1L510.2 44.1L510.2 29.9Q510.2 25.7 509.2 23.1Q508.3 20.4 505.9 19.1Q503.5 17.8 499.4 17.8L499.4 17.8ZM520.1 52.1L528.5 52.1L528.5 60.6L520.1 60.6L520.1 52.1Z "/></g></svg>