<svg width="296" height="100" viewBox="0 0 296 100" xmlns="http://www.w3.org/2000/svg"><mask id="satori_om-id"><rect x="0" y="0" width="296" height="80" fill="#fff"/></mask><rect x="0" y="0" width="296" height="80" fill="transparent"/><mask id="satori_om-id-0"><rect x="15" y="-20" width="37" height="121" fill="#fff"/></mask><g  ><path fill="#6b7280" d="M18.7 46.5L18.7 46.5L18.7 42.1Q24.6 42.1 27.0 39.6Q29.3 37.1 29.3 31.3L29.3 31.3L29.3 19.9Q29.3 15.0 30.3 11.4Q31.2 7.8 33.4 5.5Q35.5 3.1 39.0 2Q42.6 0.9 47.8 0.9L47.8 0.9L47.8 7.8Q43.7 7.8 41.3 9.1Q39.0 10.4 38.0 13.1Q37.0 15.7 37.0 19.9L37.0 19.9L37.0 34.1Q37.0 36.9 36.3 39.1Q35.6 41.4 33.6 43.1Q31.7 44.7 28.1 45.6Q24.4 46.5 18.7 46.5ZM47.8 84.8L47.8 91.8Q42.6 91.8 39.0 90.6Q35.5 89.5 33.4 87.2Q31.2 84.8 30.3 81.2Q29.3 77.6 29.3 72.7L29.3 72.7L29.3 61.4Q29.3 55.6 27.0 53.1Q24.6 50.6 18.7 50.6L18.7 50.6L18.7 46.2Q24.4 46.2 28.1 47.1Q31.7 48.0 33.6 49.6Q35.6 51.2 36.3 53.5Q37.0 55.8 37.0 58.5L37.0 58.5L37.0 72.7Q37.0 76.9 38.0 79.6Q39.0 82.2 41.3 83.5Q43.7 84.8 47.8 84.8L47.8 84.8ZM27.1 50.6L18.7 50.6L18.7 42.1L27.1 42.1L27.1 50.6Z "/></g><mask id="satori_om-id-1"><rect x="52" y="-20" width="75" height="121" fill="#fff"/></mask><g  ><path fill="#66a4de" d="M89.1 20.9L70.9 77L54.4 77L79.5 4.3L99.3 4.3L124.4 77L107.9 77L89.7 20.9L89.1 20.9ZM69.8 60.4L69.8 48.4L108.7 48.4L108.7 60.4L69.8 60.4Z "/></g><mask id="satori_om-id-2"><rect x="127" y="-20" width="73" height="121" fill="#fff"/></mask><g  ><path fill="#ffffff" d="M159.1 77L159.1 77L133.3 77L133.3 4.3L159.3 4.3Q170.3 4.3 178.2 8.6Q186.1 13.0 190.4 21.1Q194.7 29.2 194.7 40.6L194.7 40.6Q194.7 51.9 190.4 60.1Q186.1 68.3 178.2 72.6Q170.2 77 159.1 77ZM148.7 17.4L148.7 63.8L158.5 63.8Q165.3 63.8 170.0 61.4Q174.6 59.0 177.0 53.8Q179.3 48.7 179.3 40.6L179.3 40.6Q179.3 32.5 177.0 27.4Q174.6 22.3 170.0 19.9Q165.3 17.4 158.5 17.4L158.5 17.4L148.7 17.4Z "/></g><mask id="satori_om-id-3"><rect x="200" y="-15" width="44" height="111" fill="#fff"/></mask><g  ><path fill="#22c55e" d="M199.9 74L243.9 74L243.9 84.6L199.9 84.6L199.9 74Z "/></g><mask id="satori_om-id-4"><rect x="244" y="-20" width="37" height="121" fill="#fff"/></mask><g  ><path fill="#6b7280" d="M276.5 46.2L276.5 46.2L276.5 50.6Q270.6 50.6 268.2 53.1Q265.9 55.6 265.9 61.4L265.9 61.4L265.9 72.7Q265.9 77.6 264.9 81.2Q264.0 84.8 261.9 87.2Q259.7 89.5 256.2 90.6Q252.6 91.8 247.4 91.8L247.4 91.8L247.4 84.8Q251.5 84.8 253.9 83.5Q256.3 82.2 257.2 79.6Q258.2 76.9 258.2 72.7L258.2 72.7L258.2 58.5Q258.2 55.8 258.9 53.5Q259.7 51.2 261.6 49.6Q263.6 48.0 267.2 47.1Q270.8 46.2 276.5 46.2ZM247.4 7.8L247.4 0.9Q252.6 0.9 256.2 2Q259.7 3.1 261.9 5.5Q264.0 7.8 264.9 11.4Q265.9 15.0 265.9 19.9L265.9 19.9L265.9 31.3Q265.9 37.1 268.2 39.6Q270.6 42.1 276.5 42.1L276.5 42.1L276.5 46.5Q270.8 46.5 267.2 45.6Q263.6 44.7 261.6 43.1Q259.7 41.4 258.9 39.1Q258.2 36.9 258.2 34.1L258.2 34.1L258.2 19.9Q258.2 15.7 257.2 13.1Q256.3 10.4 253.9 9.1Q251.5 7.8 247.4 7.8L247.4 7.8ZM268.1 42.1L276.5 42.1L276.5 50.6L268.1 50.6L268.1 42.1Z "/></g></svg>