<svg width="800" height="400" viewBox="0 0 800 400" xmlns="http://www.w3.org/2000/svg"><mask id="satori_om-id"><rect x="0" y="0" width="800" height="400" fill="#fff"/></mask><rect x="0" y="0" width="800" height="400" fill="#111827"/><defs><clipPath id="satori_bc-id-0"><path x="40" y="40" width="720" height="320" d="M52,40 h696 a12,12 0 0 1 12,12 v296 a12,12 0 0 1 -12,12 h-696 a12,12 0 0 1 -12,-12 v-296 a12,12 0 0 1 12,-12"/></clipPath></defs><clipPath id="satori_cp-id-0"><path x="40" y="40" width="720" height="320" d="M52,40 h696 a12,12 0 0 1 12,12 v296 a12,12 0 0 1 -12,12 h-696 a12,12 0 0 1 -12,-12 v-296 a12,12 0 0 1 12,-12"/></clipPath><mask id="satori_om-id-0"><rect x="41" y="41" width="718" height="318" fill="#fff"/><path width="720" height="320" fill="none" stroke="#000" stroke-width="2" d="M43.515,43.515 A12,12 0 0 1 52,40 h696 a12,12 0 0 1 12,12 v296 a12,12 0 0 1 -12,12 h-696 a12,12 0 0 1 -12,-12 v-296 A12,12 0 0 1 43.515,43.515"/></mask><path width="720" height="320" clip-path="url(#satori_bc-id-0)" fill="none" stroke="#374151" stroke-width="2" d="M43.515,43.515 A12,12 0 0 1 52,40 h696 a12,12 0 0 1 12,12 v296 a12,12 0 0 1 -12,12 h-696 a12,12 0 0 1 -12,-12 v-296 A12,12 0 0 1 43.515,43.515"/><defs><clipPath id="satori_bc-id-0-0" clip-path="url(#satori_cp-id-0)"><rect x="41" y="41" width="718" height="42"/></clipPath></defs><mask id="satori_om-id-0-0"><rect x="41" y="41" width="718" height="41" fill="#fff" mask="url(#satori_om-id-0)"/><path width="718" height="42" fill="none" stroke="#000" stroke-width="2" d="M759,83 A0,0 0 0 1 759,83 h-718 A0,0 0 0 1 41,83"/></mask><rect x="41" y="41" width="718" height="42" fill="#1f2937" clip-path="url(#satori_cp-id-0)" mask="url(#satori_om-id-0)"/><path width="718" height="42" clip-path="url(#satori_bc-id-0-0)" fill="none" stroke="#374151" stroke-width="2" d="M759,83 A0,0 0 0 1 759,83 h-718 A0,0 0 0 1 41,83"/><mask id="satori_om-id-0-0-0"><rect x="57" y="56" width="12" height="12" fill="#fff" mask="url(#satori_om-id-0)"/></mask><path x="57" y="56" width="12" height="12" fill="#ef4444" d="M63,56 h0 a6,6 0 0 1 6,6 v0 a6,6 0 0 1 -6,6 h0 a6,6 0 0 1 -6,-6 v0 a6,6 0 0 1 6,-6" clip-path="url(#satori_cp-id-0)" mask="url(#satori_om-id-0)"/><mask id="satori_om-id-0-0-1"><rect x="77" y="56" width="12" height="12" fill="#fff" mask="url(#satori_om-id-0)"/></mask><path x="77" y="56" width="12" height="12" fill="#eab308" d="M83,56 h0 a6,6 0 0 1 6,6 v0 a6,6 0 0 1 -6,6 h0 a6,6 0 0 1 -6,-6 v0 a6,6 0 0 1 6,-6" clip-path="url(#satori_cp-id-0)" mask="url(#satori_om-id-0)"/><mask id="satori_om-id-0-0-2"><rect x="97" y="56" width="12" height="12" fill="#fff" mask="url(#satori_om-id-0)"/></mask><path x="97" y="56" width="12" height="12" fill="#22c55e" d="M103,56 h0 a6,6 0 0 1 6,6 v0 a6,6 0 0 1 -6,6 h0 a6,6 0 0 1 -6,-6 v0 a6,6 0 0 1 6,-6" clip-path="url(#satori_cp-id-0)" mask="url(#satori_om-id-0)"/><mask id="satori_om-id-0-0-3"><rect x="125" y="53" width="98" height="17" fill="#fff" mask="url(#satori_om-id-0)"/></mask><g mask="url(#satori_om-id-0)" clip-path="url(#satori_cp-id-0)"><path fill="#9ca3af" d="M128.3 67.2L128.3 67.2Q127.6 67.2 127.0 66.9Q126.4 66.6 126.1 66.1Q125.7 65.6 125.7 64.8L125.7 64.8Q125.7 64.2 126.0 63.8Q126.2 63.4 126.7 63.1Q127.1 62.9 127.6 62.8Q128.1 62.7 128.7 62.6L128.7 62.6Q129.4 62.5 129.8 62.4Q130.2 62.4 130.4 62.3Q130.6 62.2 130.6 61.9L130.6 61.9L130.6 61.8Q130.6 61.1 130.2 60.7Q129.8 60.3 129.0 60.3L129.0 60.3Q128.2 60.3 127.7 60.7Q127.2 61.0 127.0 61.5L127.0 61.5L125.9 61.1Q126.2 60.4 126.7 60.0Q127.2 59.6 127.8 59.4Q128.4 59.3 129.0 59.3L129.0 59.3Q129.4 59.3 129.8 59.4Q130.3 59.4 130.8 59.7Q131.2 60.0 131.5 60.5Q131.8 61.1 131.8 62.0L131.8 62.0L131.8 67L130.6 67L130.6 66.0L130.6 66.0Q130.5 66.2 130.2 66.5Q129.9 66.8 129.4 67.0Q129.0 67.2 128.3 67.2ZM128.5 66.1L128.5 66.1Q129.2 66.1 129.7 65.9Q130.2 65.6 130.4 65.1Q130.6 64.7 130.6 64.2L130.6 64.2L130.6 63.2Q130.6 63.3 130.3 63.3Q130.1 63.4 129.7 63.4Q129.4 63.5 129.1 63.5Q128.8 63.6 128.6 63.6L128.6 63.6Q128.2 63.7 127.8 63.8Q127.4 63.9 127.1 64.2Q126.9 64.4 126.9 64.9L126.9 64.9Q126.9 65.5 127.3 65.8Q127.8 66.1 128.5 66.1ZM136.4 63.0L135.1 64.2L135.0 62.8L135.3 62.8L138.6 59.4L140.1 59.4L136.5 63.0L136.4 63.0ZM135.1 67L134.0 67L134.0 56.8L135.1 56.8L135.1 67ZM140.3 67L138.8 67L135.8 63.2L136.7 62.4L140.3 67ZM147.0 61.1L147.0 61.1L145.9 61.4Q145.8 61.1 145.6 60.9Q145.5 60.6 145.1 60.4Q144.8 60.3 144.3 60.3L144.3 60.3Q143.6 60.3 143.1 60.6Q142.7 60.9 142.7 61.4L142.7 61.4Q142.7 61.8 143.0 62.1Q143.3 62.4 144.0 62.5L144.0 62.5L145.1 62.8Q146.1 63.1 146.6 63.6Q147.1 64.1 147.1 64.9L147.1 64.9Q147.1 65.5 146.8 66.0Q146.4 66.6 145.7 66.9Q145.0 67.2 144.2 67.2L144.2 67.2Q143.0 67.2 142.2 66.7Q141.5 66.1 141.2 65.2L141.2 65.2L142.4 64.9Q142.5 65.5 143.0 65.8Q143.4 66.1 144.1 66.1L144.1 66.1Q145.0 66.1 145.4 65.8Q145.9 65.4 145.9 64.9L145.9 64.9Q145.9 64.5 145.6 64.3Q145.4 64.0 144.8 63.9L144.8 63.9L143.5 63.6Q142.5 63.3 142.0 62.8Q141.5 62.3 141.5 61.5L141.5 61.5Q141.5 60.8 141.9 60.3Q142.2 59.8 142.9 59.5Q143.5 59.3 144.3 59.3L144.3 59.3Q145.4 59.3 146.1 59.8Q146.7 60.3 147.0 61.1ZM150.1 62.4L150.1 62.4L150.1 67L148.9 67L148.9 56.8L150.1 56.8L150.1 60.6L150.2 60.6Q150.4 60.0 151.0 59.6Q151.5 59.3 152.4 59.3L152.4 59.3Q153.2 59.3 153.8 59.6Q154.4 59.9 154.7 60.5Q155.0 61.2 155.0 62.1L155.0 62.1L155.0 67L153.9 67L153.9 62.2Q153.9 61.3 153.4 60.8Q152.9 60.3 152.1 60.3L152.1 60.3Q151.5 60.3 151.1 60.6Q150.6 60.8 150.3 61.3Q150.1 61.7 150.1 62.4ZM159.4 67.2L159.4 67.2Q158.7 67.2 158.1 66.9Q157.5 66.6 157.2 66.1Q156.8 65.6 156.8 64.8L156.8 64.8Q156.8 64.2 157.1 63.8Q157.3 63.4 157.8 63.1Q158.2 62.9 158.7 62.8Q159.2 62.7 159.8 62.6L159.8 62.6Q160.5 62.5 160.9 62.4Q161.3 62.4 161.5 62.3Q161.8 62.2 161.8 61.9L161.8 61.9L161.8 61.8Q161.8 61.1 161.3 60.7Q160.9 60.3 160.1 60.3L160.1 60.3Q159.3 60.3 158.8 60.7Q158.3 61.0 158.2 61.5L158.2 61.5L157.0 61.1Q157.3 60.4 157.8 60.0Q158.3 59.6 158.9 59.4Q159.5 59.3 160.1 59.3L160.1 59.3Q160.5 59.3 160.9 59.4Q161.4 59.4 161.9 59.7Q162.3 60.0 162.6 60.5Q162.9 61.1 162.9 62.0L162.9 62.0L162.9 67L161.8 67L161.8 66.0L161.7 66.0Q161.6 66.2 161.3 66.5Q161.0 66.8 160.6 67.0Q160.1 67.2 159.4 67.2ZM159.6 66.1L159.6 66.1Q160.3 66.1 160.8 65.9Q161.3 65.6 161.5 65.1Q161.8 64.7 161.8 64.2L161.8 64.2L161.8 63.2Q161.7 63.3 161.4 63.3Q161.2 63.4 160.8 63.4Q160.5 63.5 160.2 63.5Q159.9 63.6 159.7 63.6L159.7 63.6Q159.3 63.7 158.9 63.8Q158.5 63.9 158.2 64.2Q158.0 64.4 158.0 64.9L158.0 64.9Q158.0 65.5 158.4 65.8Q158.9 66.1 159.6 66.1ZM165.5 69.9L165.5 69.9Q165.3 69.9 165.0 69.8Q164.8 69.8 164.7 69.7L164.7 69.7L165.0 68.7Q165.4 68.8 165.7 68.8Q166.1 68.7 166.3 68.5Q166.6 68.2 166.8 67.6L166.8 67.6L167.0 67.0L164.2 59.4L165.5 59.4L167.6 65.4L167.7 65.4L169.8 59.4L171.0 59.4L167.8 68.1Q167.6 68.7 167.3 69.1Q166.9 69.5 166.5 69.7Q166.1 69.9 165.5 69.9ZM178.5 69.7L178.5 69.7Q176.9 69.7 175.8 69.3Q174.6 68.9 173.8 68.0Q173.0 67.2 172.6 66.1Q172.2 64.9 172.2 63.4L172.2 63.4Q172.2 61.9 172.6 60.8Q173.0 59.6 173.8 58.8Q174.6 58.0 175.7 57.6Q176.9 57.2 178.3 57.2L178.3 57.2Q179.7 57.2 180.8 57.7Q181.8 58.1 182.5 58.9Q183.2 59.7 183.6 60.6Q183.9 61.6 183.9 62.6L183.9 62.6Q183.9 63.3 183.9 64.1Q183.8 64.8 183.6 65.4Q183.4 66.0 182.9 66.4Q182.4 66.8 181.6 66.8L181.6 66.8Q181.3 66.8 180.9 66.7Q180.5 66.6 180.1 66.3Q179.8 66.1 179.7 65.6L179.7 65.6L179.7 65.6Q179.6 65.9 179.3 66.2Q179.1 66.5 178.7 66.6Q178.3 66.8 177.7 66.7L177.7 66.7Q177.1 66.7 176.6 66.5Q176.1 66.2 175.8 65.7Q175.4 65.3 175.3 64.7Q175.1 64.0 175.1 63.3L175.1 63.3Q175.1 62.7 175.3 62.1Q175.5 61.6 175.8 61.1Q176.2 60.7 176.7 60.5Q177.2 60.2 177.7 60.2L177.7 60.2Q178.2 60.1 178.6 60.2Q179.0 60.3 179.3 60.5Q179.6 60.7 179.6 60.9L179.6 60.9L179.7 60.9L179.7 60.3L180.7 60.3L180.7 64.8Q180.7 65.2 181.0 65.5Q181.2 65.9 181.7 65.9L181.7 65.9Q182.2 65.9 182.4 65.5Q182.7 65.2 182.8 64.4Q182.9 63.7 182.9 62.6L182.9 62.6Q182.9 61.9 182.7 61.3Q182.5 60.6 182.2 60.1Q181.8 59.5 181.3 59.1Q180.7 58.6 180.0 58.4Q179.2 58.1 178.3 58.1L178.3 58.1Q177.1 58.1 176.2 58.5Q175.2 58.9 174.6 59.5Q174.0 60.2 173.6 61.2Q173.3 62.2 173.3 63.4L173.3 63.4Q173.3 64.7 173.6 65.7Q174.0 66.7 174.6 67.4Q175.3 68.0 176.2 68.4Q177.2 68.7 178.5 68.7L178.5 68.7Q179.0 68.7 179.6 68.6Q180.1 68.5 180.5 68.4Q180.9 68.3 181.1 68.2L181.1 68.2L181.4 69.1Q181.1 69.3 180.6 69.4Q180.1 69.5 179.5 69.6Q179.0 69.7 178.5 69.7ZM177.9 65.7L177.9 65.7Q178.5 65.7 179.0 65.5Q179.4 65.2 179.6 64.6Q179.7 64.1 179.7 63.3L179.7 63.3Q179.7 62.4 179.5 62.0Q179.3 61.5 178.9 61.3Q178.5 61.1 177.9 61.1L177.9 61.1Q177.4 61.1 177.0 61.4Q176.6 61.7 176.3 62.2Q176.1 62.7 176.1 63.3L176.1 63.3Q176.1 63.9 176.3 64.5Q176.5 65.0 176.8 65.4Q177.2 65.7 177.9 65.7ZM188.6 67.2L188.6 67.2Q187.6 67.2 186.9 66.7Q186.2 66.2 185.7 65.3Q185.3 64.4 185.3 63.2L185.3 63.2Q185.3 62.0 185.7 61.1Q186.2 60.2 186.9 59.7Q187.6 59.3 188.6 59.3L188.6 59.3Q189.3 59.3 189.8 59.5Q190.2 59.8 190.4 60.1Q190.7 60.4 190.8 60.6L190.8 60.6L190.9 60.6L190.9 56.8L192.1 56.8L192.1 67L190.9 67L190.9 65.8L190.8 65.8Q190.7 66.0 190.4 66.4Q190.2 66.7 189.8 66.9Q189.3 67.2 188.6 67.2ZM188.7 66.1L188.7 66.1Q189.4 66.1 189.9 65.7Q190.4 65.4 190.7 64.7Q190.9 64.0 190.9 63.2L190.9 63.2Q190.9 62.3 190.7 61.7Q190.4 61.0 189.9 60.7Q189.5 60.3 188.7 60.3L188.7 60.3Q188.0 60.3 187.5 60.7Q187.0 61.1 186.8 61.7Q186.5 62.4 186.5 63.2L186.5 63.2Q186.5 64.0 186.8 64.7Q187.0 65.3 187.5 65.7Q188 66.1 188.7 66.1ZM197.6 67.2L197.6 67.2Q196.5 67.2 195.7 66.7Q194.9 66.2 194.5 65.3Q194.0 64.4 194.0 63.2L194.0 63.2Q194.0 62.1 194.5 61.2Q194.9 60.3 195.7 59.8Q196.4 59.3 197.5 59.3L197.5 59.3Q198.1 59.3 198.6 59.5Q199.2 59.7 199.7 60.1Q200.2 60.6 200.5 61.3Q200.7 62.0 200.7 63.1L200.7 63.1L200.7 63.6L194.9 63.6L194.9 62.6L199.6 62.6Q199.6 61.9 199.3 61.4Q199.0 60.9 198.6 60.6Q198.1 60.3 197.5 60.3L197.5 60.3Q196.8 60.3 196.3 60.7Q195.7 61.0 195.5 61.6Q195.2 62.1 195.2 62.7L195.2 62.7L195.2 63.4Q195.2 64.3 195.5 64.9Q195.8 65.5 196.3 65.8Q196.9 66.1 197.6 66.1L197.6 66.1Q198.0 66.1 198.4 66.0Q198.8 65.8 199.1 65.6Q199.3 65.3 199.5 64.9L199.5 64.9L200.6 65.2Q200.4 65.8 200.0 66.2Q199.6 66.7 199.0 66.9Q198.4 67.2 197.6 67.2ZM207.3 59.4L208.5 59.4L205.7 67L204.5 67L201.7 59.4L203.0 59.4L205.1 65.4L205.2 65.4L207.3 59.4ZM210.9 67.1L210.9 67.1Q210.6 67.1 210.3 66.8Q210.1 66.6 210.1 66.2L210.1 66.2Q210.1 65.8 210.3 65.6Q210.6 65.3 210.9 65.3L210.9 65.3Q211.3 65.3 211.6 65.6Q211.8 65.8 211.8 66.2L211.8 66.2Q211.8 66.4 211.7 66.6Q211.6 66.8 211.4 67.0Q211.2 67.1 210.9 67.1ZM210.9 61.4L210.9 61.4Q210.6 61.4 210.3 61.1Q210.1 60.9 210.1 60.5L210.1 60.5Q210.1 60.1 210.3 59.9Q210.6 59.6 210.9 59.6L210.9 59.6Q211.3 59.6 211.6 59.9Q211.8 60.1 211.8 60.5L211.8 60.5Q211.8 60.8 211.7 61.0Q211.6 61.2 211.4 61.3Q211.2 61.4 210.9 61.4ZM215.1 64.0L214.0 64.0Q214.0 63.2 214.3 62.6Q214.6 62.1 215.0 61.9Q215.5 61.7 216.0 61.7L216.0 61.7Q216.5 61.7 216.9 61.9Q217.3 62.1 217.9 62.6L217.9 62.6Q218.3 62.9 218.5 63.1Q218.7 63.2 219.0 63.2L219.0 63.2Q219.4 63.2 219.6 62.9Q219.9 62.6 219.9 62.0L219.9 62.0L221.0 62.0Q221.0 62.8 220.7 63.3Q220.4 63.8 219.9 64.0Q219.5 64.3 219.0 64.3L219.0 64.3Q218.5 64.3 218.1 64.0Q217.6 63.8 217.1 63.3L217.1 63.3Q216.7 63.0 216.5 62.9Q216.3 62.8 216.0 62.8L216.0 62.8Q215.6 62.8 215.4 63.0Q215.1 63.3 215.1 64.0L215.1 64.0Z "/></g><mask id="satori_om-id-0-1"><rect x="41" y="83" width="718" height="276" fill="#fff" mask="url(#satori_om-id-0)"/></mask><mask id="satori_om-id-0-1-0"><rect x="81" y="123" width="638" height="22" fill="#fff" mask="url(#satori_om-id-0)"/></mask><mask id="satori_om-id-0-1-0-0"><rect x="81" y="123" width="12" height="22" fill="#fff" mask="url(#satori_om-id-0)"/></mask><g mask="url(#satori_om-id-0)" clip-path="url(#satori_cp-id-0)"><path fill="#9ca3af" d="M87.3 141.6L86.2 141.6L86.2 125.3L87.3 125.3L87.3 141.6ZM91.3 130.2L89.7 130.2Q89.6 129.2 88.8 128.7Q88.0 128.1 86.8 128.1L86.8 128.1Q85.9 128.1 85.3 128.4Q84.6 128.7 84.3 129.2Q83.9 129.7 83.9 130.3L83.9 130.3Q83.9 130.8 84.2 131.2Q84.4 131.6 84.8 131.8Q85.2 132.1 85.6 132.2Q86.1 132.4 86.4 132.5L86.4 132.5L87.8 132.8Q88.3 133.0 88.9 133.2Q89.5 133.4 90.1 133.9Q90.7 134.3 91.1 134.9Q91.5 135.5 91.5 136.4L91.5 136.4Q91.5 137.5 90.9 138.4Q90.4 139.2 89.3 139.7Q88.2 140.2 86.7 140.2L86.7 140.2Q85.3 140.2 84.3 139.8Q83.3 139.3 82.7 138.5Q82.1 137.7 82.0 136.6L82.0 136.6L83.7 136.6Q83.7 137.4 84.2 137.8Q84.6 138.3 85.3 138.6Q85.9 138.8 86.7 138.8L86.7 138.8Q87.6 138.8 88.4 138.5Q89.1 138.2 89.5 137.7Q89.9 137.1 89.9 136.4L89.9 136.4Q89.9 135.8 89.6 135.4Q89.2 135.0 88.6 134.7Q88.0 134.4 87.3 134.2L87.3 134.2L85.7 133.8Q84.2 133.3 83.3 132.5Q82.4 131.7 82.4 130.4L82.4 130.4Q82.4 129.3 83.0 128.5Q83.6 127.6 84.6 127.2Q85.6 126.7 86.9 126.7L86.9 126.7Q88.1 126.7 89.1 127.2Q90.1 127.6 90.7 128.4Q91.2 129.2 91.3 130.2L91.3 130.2Z "/></g><mask id="satori_om-id-0-1-0-1"><rect x="101" y="123" width="67" height="22" fill="#fff" mask="url(#satori_om-id-0)"/></mask><g mask="url(#satori_om-id-0)" clip-path="url(#satori_cp-id-0)"><path fill="#ffffff" d="M106.1 140L104.6 140L101.6 130.2L103.2 130.2L105.3 137.7L105.4 137.7L107.5 130.2L109.1 130.2L111.2 137.7L111.3 137.7L113.4 130.2L115.0 130.2L112.0 140L110.5 140L108.4 132.5L108.2 132.5L106.1 140ZM118.5 134.1L118.5 134.1L118.5 140L117.0 140L117.0 126.9L118.5 126.9L118.5 131.7L118.6 131.7Q119.0 131.0 119.7 130.5Q120.4 130.1 121.5 130.1L121.5 130.1Q122.5 130.1 123.3 130.5Q124.0 130.9 124.5 131.7Q124.9 132.5 124.9 133.8L124.9 133.8L124.9 140L123.4 140L123.4 133.9Q123.4 132.7 122.8 132.1Q122.2 131.4 121.1 131.4L121.1 131.4Q120.4 131.4 119.8 131.7Q119.2 132.0 118.8 132.6Q118.5 133.2 118.5 134.1ZM131.6 140.2L131.6 140.2Q130.3 140.2 129.3 139.6Q128.3 138.9 127.7 137.8Q127.2 136.7 127.2 135.1L127.2 135.1Q127.2 133.6 127.7 132.5Q128.3 131.3 129.3 130.7Q130.3 130.1 131.6 130.1L131.6 130.1Q133.0 130.1 134.0 130.7Q135.0 131.3 135.5 132.5Q136.1 133.6 136.1 135.1L136.1 135.1Q136.1 136.7 135.5 137.8Q135.0 138.9 134.0 139.6Q133.0 140.2 131.6 140.2ZM131.6 138.8L131.6 138.8Q132.6 138.8 133.3 138.3Q133.9 137.8 134.3 137.0Q134.6 136.1 134.6 135.1L134.6 135.1Q134.6 134.2 134.3 133.3Q133.9 132.5 133.3 131.9Q132.6 131.4 131.6 131.4L131.6 131.4Q130.6 131.4 130.0 131.9Q129.3 132.5 129.0 133.3Q128.7 134.2 128.7 135.1L128.7 135.1Q128.7 136.1 129.0 137.0Q129.3 137.8 130.0 138.3Q130.6 138.8 131.6 138.8ZM141.3 140.2L141.3 140.2Q140.3 140.2 139.6 139.9Q138.8 139.5 138.4 138.8Q137.9 138.2 137.9 137.2L137.9 137.2Q137.9 136.4 138.3 135.8Q138.6 135.3 139.1 135.0Q139.7 134.7 140.4 134.6Q141.0 134.4 141.7 134.3L141.7 134.3Q142.6 134.2 143.2 134.1Q143.7 134.1 144.0 133.9Q144.3 133.8 144.3 133.4L144.3 133.4L144.3 133.4Q144.3 132.4 143.7 131.9Q143.2 131.4 142.2 131.4L142.2 131.4Q141.1 131.4 140.5 131.9Q139.9 132.3 139.6 132.9L139.6 132.9L138.2 132.4Q138.6 131.5 139.2 131.0Q139.9 130.5 140.6 130.3Q141.4 130.1 142.1 130.1L142.1 130.1Q142.6 130.1 143.2 130.2Q143.8 130.3 144.4 130.6Q145.0 131.0 145.4 131.7Q145.8 132.4 145.8 133.5L145.8 133.5L145.8 140L144.3 140L144.3 138.7L144.2 138.7Q144.0 139.0 143.7 139.4Q143.3 139.7 142.7 140.0Q142.1 140.2 141.3 140.2ZM141.5 138.9L141.5 138.9Q142.4 138.9 143.0 138.5Q143.6 138.2 143.9 137.6Q144.3 137.1 144.3 136.4L144.3 136.4L144.3 135.1Q144.2 135.2 143.8 135.3Q143.5 135.4 143.1 135.4Q142.7 135.5 142.3 135.5Q141.9 135.6 141.7 135.6L141.7 135.6Q141.1 135.7 140.6 135.9Q140.0 136.0 139.7 136.4Q139.4 136.7 139.4 137.3L139.4 137.3Q139.4 138.1 140.0 138.5Q140.6 138.9 141.5 138.9ZM150.0 140L148.5 140L148.5 130.2L150.0 130.2L150.0 131.7L150.1 131.7Q150.4 130.9 151.1 130.5Q151.8 130.1 152.8 130.1L152.8 130.1Q153.7 130.1 154.4 130.5Q155.0 130.9 155.4 131.7L155.4 131.7L155.5 131.7Q155.9 131.0 156.6 130.5Q157.4 130.1 158.4 130.1L158.4 130.1Q159.7 130.1 160.6 130.9Q161.4 131.7 161.4 133.4L161.4 133.4L161.4 140L159.9 140L159.9 133.4Q159.9 132.3 159.3 131.9Q158.7 131.4 157.9 131.4L157.9 131.4Q156.9 131.4 156.3 132.0Q155.7 132.7 155.7 133.6L155.7 133.6L155.7 140L154.2 140L154.2 133.3Q154.2 132.4 153.7 131.9Q153.1 131.4 152.3 131.4L152.3 131.4Q151.7 131.4 151.2 131.7Q150.7 132.0 150.3 132.6Q150.0 133.1 150.0 133.9L150.0 133.9L150.0 140ZM165.7 140L164.2 140L164.2 130.2L165.7 130.2L165.7 140ZM164.9 128.5L164.9 128.5Q164.5 128.5 164.2 128.2Q163.9 127.9 163.9 127.5L163.9 127.5Q163.9 127.1 164.2 126.8Q164.5 126.5 164.9 126.5L164.9 126.5Q165.4 126.5 165.7 126.8Q166.0 127.1 166.0 127.5L166.0 127.5Q166.0 127.9 165.7 128.2Q165.4 128.5 164.9 128.5Z "/></g><mask id="satori_om-id-0-1-1"><rect x="81" y="161" width="638" height="32" fill="#fff" mask="url(#satori_om-id-0)"/></mask><g mask="url(#satori_om-id-0)" clip-path="url(#satori_cp-id-0)"><path fill="#ffffff" d="M98.8 180.1L90.1 207L82.1 207L94.2 172.1L103.7 172.1L115.7 207L107.8 207L99.1 180.1L98.8 180.1ZM89.6 199.0L89.6 193.3L108.2 193.3L108.2 199.0L89.6 199.0ZM131.2 194.0L126.4 199.5L126.4 190.8L127.4 190.8L135.8 180.8L144.2 180.8L132.9 194.0L131.2 194.0ZM127.1 207L119.8 207L119.8 172.1L127.1 172.1L127.1 207ZM144.7 207L136.2 207L128.5 195.6L133.3 190.5L144.7 207ZM169.5 188.3L169.5 188.3L162.9 188.7Q162.7 187.8 162.1 187.2Q161.6 186.5 160.6 186.0Q159.7 185.6 158.5 185.6L158.5 185.6Q156.8 185.6 155.6 186.3Q154.5 187.0 154.5 188.2L154.5 188.2Q154.5 189.2 155.2 189.8Q156.0 190.4 157.8 190.8L157.8 190.8L162.5 191.8Q166.3 192.6 168.2 194.3Q170.1 196.1 170.1 198.9L170.1 198.9Q170.1 201.5 168.6 203.4Q167.1 205.3 164.5 206.4Q161.8 207.5 158.4 207.5L158.4 207.5Q153.2 207.5 150.2 205.3Q147.1 203.2 146.6 199.4L146.6 199.4L153.7 199.0Q154.0 200.6 155.3 201.5Q156.5 202.3 158.5 202.3L158.5 202.3Q160.4 202.3 161.5 201.5Q162.7 200.8 162.7 199.6L162.7 199.6Q162.7 198.6 161.9 198.0Q161.1 197.4 159.4 197.0L159.4 197.0L154.8 196.1Q151.0 195.3 149.1 193.4Q147.3 191.6 147.3 188.6L147.3 188.6Q147.3 186.1 148.6 184.3Q150 182.5 152.5 181.5Q155.0 180.5 158.4 180.5L158.4 180.5Q163.3 180.5 166.2 182.6Q169.0 184.7 169.5 188.3ZM181.9 191.9L181.9 191.9L181.9 207L174.7 207L174.7 172.1L181.7 172.1L181.7 185.4L182.0 185.4Q182.9 183.1 184.9 181.8Q186.9 180.5 189.9 180.5L189.9 180.5Q192.6 180.5 194.6 181.7Q196.7 182.8 197.8 185.1Q198.9 187.3 198.9 190.3L198.9 190.3L198.9 207L191.7 207L191.7 191.6Q191.7 189.2 190.4 187.9Q189.2 186.5 187.0 186.5L187.0 186.5Q185.5 186.5 184.4 187.1Q183.2 187.8 182.6 189.0Q182.0 190.2 181.9 191.9ZM212.1 207.5L212.1 207.5Q209.6 207.5 207.6 206.6Q205.7 205.7 204.6 204.0Q203.4 202.3 203.4 199.7L203.4 199.7Q203.4 197.5 204.2 196.0Q205.0 194.5 206.4 193.6Q207.8 192.7 209.5 192.3Q211.3 191.8 213.3 191.6L213.3 191.6Q215.5 191.4 216.9 191.2Q218.3 191.0 219.0 190.5Q219.6 190.1 219.6 189.3L219.6 189.3L219.6 189.2Q219.6 187.6 218.6 186.7Q217.6 185.8 215.7 185.8L215.7 185.8Q213.8 185.8 212.6 186.6Q211.4 187.5 211.1 188.8L211.1 188.8L204.3 188.3Q204.9 185.9 206.4 184.1Q207.9 182.4 210.2 181.4Q212.6 180.5 215.7 180.5L215.7 180.5Q217.9 180.5 219.9 181.0Q221.9 181.5 223.5 182.6Q225.1 183.6 226.0 185.3Q226.9 187.0 226.9 189.3L226.9 189.3L226.9 207L220.0 207L220.0 203.4L219.8 203.4Q219.1 204.6 218.1 205.5Q217.0 206.5 215.5 207.0Q214.1 207.5 212.1 207.5ZM214.2 202.5L214.2 202.5Q215.8 202.5 217.0 201.8Q218.3 201.2 218.9 200.1Q219.6 199.0 219.6 197.6L219.6 197.6L219.6 194.9Q219.3 195.1 218.7 195.3Q218.1 195.4 217.4 195.6Q216.7 195.7 215.9 195.8Q215.2 196.0 214.6 196.0L214.6 196.0Q213.3 196.2 212.4 196.6Q211.4 197.0 210.9 197.7Q210.4 198.4 210.4 199.4L210.4 199.4Q210.4 200.9 211.4 201.7Q212.5 202.5 214.2 202.5ZM236.0 216.8L236.0 216.8Q234.6 216.8 233.4 216.6Q232.2 216.4 231.5 216.1L231.5 216.1L233.1 210.6Q234.4 211.0 235.4 211.1Q236.4 211.1 237.2 210.6Q238.0 210.1 238.4 208.9L238.4 208.9L238.9 207.8L229.5 180.8L237.1 180.8L242.5 200.0L242.8 200.0L248.3 180.8L256.0 180.8L245.8 209.8Q245.0 211.9 243.8 213.5Q242.5 215.1 240.6 216.0Q238.7 216.8 236.0 216.8Z M284.3 207L284.3 207L271.9 207L271.9 172.1L284.4 172.1Q289.6 172.1 293.4 174.2Q297.2 176.3 299.3 180.2Q301.3 184.1 301.3 189.5L301.3 189.5Q301.3 195.0 299.3 198.9Q297.2 202.8 293.4 204.9Q289.6 207 284.3 207ZM279.3 178.4L279.3 200.7L284.0 200.7Q287.2 200.7 289.5 199.5Q291.7 198.3 292.8 195.9Q294.0 193.4 294.0 189.5L294.0 189.5Q294.0 185.6 292.8 183.2Q291.7 180.7 289.5 179.6Q287.2 178.4 284.0 178.4L284.0 178.4L279.3 178.4Z "/></g><mask id="satori_om-id-0-1-2"><rect x="81" y="209" width="638" height="18" fill="#fff" mask="url(#satori_om-id-0)"/></mask><g mask="url(#satori_om-id-0)" clip-path="url(#satori_cp-id-0)"><path fill="#66a4de" d="M94.7 221.9L92.7 221.9Q92.5 220.6 91.4 219.9Q90.3 219.2 88.7 219.2L88.7 219.2Q87.6 219.2 86.7 219.6Q85.8 219.9 85.4 220.6Q84.9 221.2 84.9 222.1L84.9 222.1Q84.9 222.8 85.2 223.3Q85.6 223.8 86.1 224.1Q86.6 224.4 87.2 224.6Q87.8 224.8 88.3 225.0L88.3 225.0L90.0 225.5Q90.7 225.6 91.6 225.9Q92.4 226.3 93.2 226.8Q93.9 227.3 94.4 228.2Q94.9 229.0 94.9 230.3L94.9 230.3Q94.9 231.7 94.2 232.8Q93.5 234.0 92.1 234.6Q90.6 235.3 88.6 235.3L88.6 235.3Q86.8 235.3 85.4 234.7Q84.0 234.1 83.2 233.0Q82.5 231.9 82.4 230.5L82.4 230.5L84.5 230.5Q84.6 231.5 85.2 232.1Q85.8 232.8 86.7 233.1Q87.6 233.4 88.6 233.4L88.6 233.4Q89.8 233.4 90.8 233.0Q91.8 232.6 92.3 231.9Q92.9 231.2 92.9 230.2L92.9 230.2Q92.9 229.4 92.4 228.8Q91.9 228.3 91.1 227.9Q90.3 227.6 89.4 227.3L89.4 227.3L87.3 226.7Q85.2 226.1 84.0 225.0Q82.8 223.9 82.8 222.2L82.8 222.2Q82.8 220.7 83.6 219.6Q84.4 218.5 85.8 217.9Q87.1 217.3 88.8 217.3L88.8 217.3Q90.5 217.3 91.8 217.9Q93.1 218.5 93.9 219.5Q94.7 220.6 94.7 221.9L94.7 221.9ZM103.5 235.3L103.5 235.3Q101.7 235.3 100.4 234.4Q99.0 233.6 98.3 232.1Q97.5 230.6 97.5 228.5L97.5 228.5Q97.5 226.5 98.3 225.0Q99.0 223.4 100.4 222.6Q101.7 221.7 103.5 221.7L103.5 221.7Q105.2 221.7 106.6 222.6Q107.9 223.4 108.7 225.0Q109.4 226.5 109.4 228.5L109.4 228.5Q109.4 230.6 108.7 232.1Q107.9 233.6 106.6 234.4Q105.2 235.3 103.5 235.3ZM103.5 233.5L103.5 233.5Q104.8 233.5 105.7 232.8Q106.6 232.1 107.0 231.0Q107.4 229.8 107.4 228.5L107.4 228.5Q107.4 227.2 107.0 226.1Q106.6 224.9 105.7 224.2Q104.8 223.5 103.5 223.5L103.5 223.5Q102.1 223.5 101.3 224.2Q100.4 224.9 100.0 226.1Q99.5 227.2 99.5 228.5L99.5 228.5Q99.5 229.8 100.0 231.0Q100.4 232.1 101.3 232.8Q102.1 233.5 103.5 233.5ZM111.2 221.9L118.3 221.9L118.3 223.6L111.2 223.6L111.2 221.9ZM115.4 235L113.4 235L113.4 220.1Q113.4 219.0 113.9 218.2Q114.4 217.5 115.3 217.1Q116.1 216.7 117.0 216.7L117.0 216.7Q117.8 216.7 118.2 216.8Q118.7 217.0 118.9 217.1L118.9 217.1L118.4 218.8Q118.2 218.8 117.9 218.7Q117.7 218.6 117.2 218.6L117.2 218.6Q116.2 218.6 115.8 219.1Q115.4 219.6 115.4 220.6L115.4 220.6L115.4 235ZM120.0 221.9L126.8 221.9L126.8 223.6L120.0 223.6L120.0 221.9ZM122.0 231.8L122.0 218.8L124.0 218.8L124.0 231.3Q124.0 232.1 124.3 232.5Q124.5 232.9 124.9 233.1Q125.3 233.2 125.8 233.2L125.8 233.2Q126.1 233.2 126.3 233.2Q126.5 233.2 126.6 233.1L126.6 233.1L127.1 234.9Q126.9 235.0 126.5 235.1Q126.1 235.2 125.6 235.2L125.6 235.2Q124.7 235.2 123.9 234.8Q123.1 234.4 122.5 233.7Q122.0 232.9 122.0 231.8L122.0 231.8ZM134.8 235L132.8 235L128.8 221.9L130.9 221.9L133.8 231.9L133.9 231.9L136.7 221.9L138.9 221.9L141.6 231.9L141.8 231.9L144.6 221.9L146.7 221.9L142.7 235L140.7 235L137.9 224.9L137.7 224.9L134.8 235ZM153.2 235.3L153.2 235.3Q152.0 235.3 150.9 234.8Q149.9 234.4 149.3 233.5Q148.7 232.6 148.7 231.3L148.7 231.3Q148.7 230.2 149.2 229.5Q149.6 228.8 150.4 228.4Q151.1 228.0 152.0 227.8Q152.9 227.6 153.8 227.4L153.8 227.4Q155.0 227.3 155.8 227.2Q156.5 227.1 156.8 226.9Q157.2 226.7 157.2 226.2L157.2 226.2L157.2 226.2Q157.2 224.9 156.5 224.2Q155.8 223.5 154.4 223.5L154.4 223.5Q153.0 223.5 152.2 224.1Q151.4 224.8 151.0 225.5L151.0 225.5L149.1 224.8Q149.6 223.6 150.5 222.9Q151.3 222.3 152.4 222.0Q153.4 221.7 154.4 221.7L154.4 221.7Q155.0 221.7 155.8 221.9Q156.6 222.0 157.4 222.5Q158.2 223.0 158.7 223.9Q159.2 224.8 159.2 226.4L159.2 226.4L159.2 235L157.2 235L157.2 233.2L157.1 233.2Q156.9 233.7 156.4 234.1Q155.9 234.6 155.1 235.0Q154.3 235.3 153.2 235.3ZM153.5 233.5L153.5 233.5Q154.7 233.5 155.5 233.0Q156.3 232.6 156.8 231.8Q157.2 231.1 157.2 230.3L157.2 230.3L157.2 228.4Q157.1 228.6 156.6 228.7Q156.2 228.8 155.6 228.9Q155.1 229 154.6 229.1Q154.0 229.1 153.7 229.2L153.7 229.2Q152.9 229.3 152.3 229.5Q151.6 229.7 151.2 230.2Q150.8 230.6 150.8 231.4L150.8 231.4Q150.8 232.4 151.5 233.0Q152.3 233.5 153.5 233.5ZM164.9 235L162.9 235L162.9 221.9L164.8 221.9L164.8 223.9L165.0 223.9Q165.3 222.9 166.3 222.3Q167.2 221.7 168.4 221.7L168.4 221.7Q168.6 221.7 168.9 221.7Q169.3 221.7 169.4 221.7L169.4 221.7L169.4 223.8Q169.3 223.8 169.0 223.7Q168.6 223.6 168.2 223.6L168.2 223.6Q167.3 223.6 166.5 224.0Q165.8 224.4 165.3 225.1Q164.9 225.8 164.9 226.7L164.9 226.7L164.9 235ZM176.9 235.3L176.9 235.3Q175.0 235.3 173.6 234.4Q172.3 233.6 171.5 232.1Q170.8 230.6 170.8 228.6L170.8 228.6Q170.8 226.5 171.5 225.0Q172.3 223.5 173.6 222.6Q174.9 221.7 176.7 221.7L176.7 221.7Q177.7 221.7 178.7 222.1Q179.7 222.4 180.5 223.2Q181.3 223.9 181.8 225.2Q182.3 226.5 182.3 228.3L182.3 228.3L182.3 229.1L172.2 229.1L172.2 227.4L180.3 227.4Q180.3 226.3 179.8 225.4Q179.4 224.6 178.6 224.0Q177.8 223.5 176.7 223.5L176.7 223.5Q175.5 223.5 174.6 224.1Q173.7 224.7 173.3 225.7Q172.8 226.6 172.8 227.7L172.8 227.7L172.8 228.9Q172.8 230.3 173.3 231.4Q173.8 232.4 174.8 232.9Q175.7 233.5 176.9 233.5L176.9 233.5Q177.7 233.5 178.3 233.2Q179.0 233.0 179.4 232.6Q179.9 232.1 180.2 231.4L180.2 231.4L182.1 232.0Q181.8 233.0 181.1 233.7Q180.4 234.4 179.3 234.9Q178.2 235.3 176.9 235.3Z M203.5 235L192.8 235L192.8 217.5L203.4 217.5L203.4 219.4L194.9 219.4L194.9 225.3L202.8 225.3L202.8 227.2L194.9 227.2L194.9 233.1L203.5 233.1L203.5 235ZM208.9 227.1L208.9 227.1L208.9 235L206.9 235L206.9 221.9L208.8 221.9L208.8 224.0L209.0 224.0Q209.5 223.0 210.4 222.3Q211.3 221.7 212.8 221.7L212.8 221.7Q214.2 221.7 215.2 222.3Q216.2 222.8 216.7 223.9Q217.3 225.0 217.3 226.7L217.3 226.7L217.3 235L215.2 235L215.2 226.8Q215.2 225.3 214.4 224.4Q213.6 223.5 212.2 223.5L212.2 223.5Q211.3 223.5 210.5 224.0Q209.8 224.4 209.3 225.2Q208.9 226.0 208.9 227.1ZM226.2 240.2L226.2 240.2Q224.8 240.2 223.7 239.8Q222.7 239.4 222.0 238.8Q221.3 238.2 220.9 237.6L220.9 237.6L222.5 236.4Q222.7 236.8 223.2 237.3Q223.6 237.7 224.3 238.1Q225.0 238.4 226.2 238.4L226.2 238.4Q227.8 238.4 228.8 237.6Q229.9 236.9 229.9 235.2L229.9 235.2L229.9 232.6L229.7 232.6Q229.5 232.9 229.1 233.5Q228.7 234.0 227.9 234.4Q227.2 234.8 225.9 234.8L225.9 234.8Q224.3 234.8 223.0 234.0Q221.8 233.3 221.1 231.9Q220.3 230.4 220.3 228.4L220.3 228.4Q220.3 226.4 221.0 224.9Q221.7 223.4 223.0 222.6Q224.3 221.7 225.9 221.7L225.9 221.7Q227.2 221.7 228.0 222.2Q228.7 222.6 229.1 223.1Q229.5 223.6 229.7 224.0L229.7 224.0L229.9 224.0L229.9 221.9L231.9 221.9L231.9 235.4Q231.9 237.1 231.1 238.1Q230.4 239.2 229.1 239.7Q227.8 240.2 226.2 240.2ZM226.2 233.0L226.2 233.0Q227.4 233.0 228.2 232.4Q229.0 231.9 229.5 230.8Q229.9 229.8 229.9 228.4L229.9 228.4Q229.9 226.9 229.5 225.9Q229.1 224.8 228.2 224.2Q227.4 223.5 226.2 223.5L226.2 223.5Q224.9 223.5 224.0 224.2Q223.2 224.8 222.8 225.9Q222.3 227.0 222.3 228.4L222.3 228.4Q222.3 229.7 222.8 230.8Q223.2 231.8 224.0 232.4Q224.9 233.0 226.2 233.0ZM237.6 235L235.6 235L235.6 221.9L237.6 221.9L237.6 235ZM236.6 219.7L236.6 219.7Q236.0 219.7 235.6 219.3Q235.2 218.9 235.2 218.4L235.2 218.4Q235.2 217.8 235.6 217.4Q236.0 217 236.6 217L236.6 217Q237.2 217 237.6 217.4Q238.0 217.8 238.0 218.4L238.0 218.4Q238.0 218.9 237.6 219.3Q237.2 219.7 236.6 219.7ZM243.3 227.1L243.3 227.1L243.3 235L241.3 235L241.3 221.9L243.2 221.9L243.2 224.0L243.4 224.0Q243.8 223.0 244.8 222.3Q245.7 221.7 247.2 221.7L247.2 221.7Q248.5 221.7 249.5 222.3Q250.5 222.8 251.1 223.9Q251.6 225.0 251.6 226.7L251.6 226.7L251.6 235L249.6 235L249.6 226.8Q249.6 225.3 248.8 224.4Q248.0 223.5 246.6 223.5L246.6 223.5Q245.7 223.5 244.9 224.0Q244.1 224.4 243.7 225.2Q243.3 226.0 243.3 227.1ZM260.8 235.3L260.8 235.3Q258.9 235.3 257.5 234.4Q256.2 233.6 255.4 232.1Q254.7 230.6 254.7 228.6L254.7 228.6Q254.7 226.5 255.4 225.0Q256.2 223.5 257.5 222.6Q258.8 221.7 260.6 221.7L260.6 221.7Q261.6 221.7 262.6 222.1Q263.6 222.4 264.4 223.2Q265.2 223.9 265.7 225.2Q266.2 226.5 266.2 228.3L266.2 228.3L266.2 229.1L256.1 229.1L256.1 227.4L264.2 227.4Q264.2 226.3 263.7 225.4Q263.3 224.6 262.5 224.0Q261.7 223.5 260.6 223.5L260.6 223.5Q259.4 223.5 258.5 224.1Q257.6 224.7 257.2 225.7Q256.7 226.6 256.7 227.7L256.7 227.7L256.7 228.9Q256.7 230.3 257.2 231.4Q257.7 232.4 258.7 232.9Q259.6 233.5 260.8 233.5L260.8 233.5Q261.6 233.5 262.2 233.2Q262.9 233.0 263.3 232.6Q263.8 232.1 264.1 231.4L264.1 231.4L266.0 232.0Q265.7 233.0 265.0 233.7Q264.3 234.4 263.2 234.9Q262.1 235.3 260.8 235.3ZM274.8 235.3L274.8 235.3Q272.9 235.3 271.5 234.4Q270.1 233.6 269.4 232.1Q268.7 230.6 268.7 228.6L268.7 228.6Q268.7 226.5 269.4 225.0Q270.1 223.5 271.5 222.6Q272.8 221.7 274.6 221.7L274.6 221.7Q275.6 221.7 276.6 222.1Q277.6 222.4 278.4 223.2Q279.2 223.9 279.7 225.2Q280.2 226.5 280.2 228.3L280.2 228.3L280.2 229.1L270.1 229.1L270.1 227.4L278.1 227.4Q278.1 226.3 277.7 225.4Q277.3 224.6 276.5 224.0Q275.7 223.5 274.6 223.5L274.6 223.5Q273.4 223.5 272.5 224.1Q271.6 224.7 271.2 225.7Q270.7 226.6 270.7 227.7L270.7 227.7L270.7 228.9Q270.7 230.3 271.2 231.4Q271.7 232.4 272.6 232.9Q273.6 233.5 274.8 233.5L274.8 233.5Q275.6 233.5 276.2 233.2Q276.9 233.0 277.3 232.6Q277.8 232.1 278.0 231.4L278.0 231.4L280.0 232.0Q279.7 233.0 279.0 233.7Q278.2 234.4 277.2 234.9Q276.1 235.3 274.8 235.3ZM285.3 235L283.3 235L283.3 221.9L285.2 221.9L285.2 223.9L285.3 223.9Q285.7 222.9 286.6 222.3Q287.6 221.7 288.7 221.7L288.7 221.7Q289.0 221.7 289.3 221.7Q289.6 221.7 289.8 221.7L289.8 221.7L289.8 223.8Q289.7 223.8 289.3 223.7Q289.0 223.6 288.6 223.6L288.6 223.6Q287.6 223.6 286.9 224.0Q286.1 224.4 285.7 225.1Q285.3 225.8 285.3 226.7L285.3 226.7L285.3 235Z M303.9 235.2L303.9 235.2Q302.2 235.2 300.9 234.6Q299.7 234.0 299.0 232.9Q298.3 231.8 298.3 230.4L298.3 230.4Q298.3 229.3 298.8 228.4Q299.3 227.6 300.1 226.8Q300.9 226.1 302.0 225.4L302.0 225.4L304.5 223.5Q305.2 223.0 305.7 222.5Q306.1 221.9 306.1 221.0L306.1 221.0Q306.1 220.4 305.6 219.7Q305.0 219.1 304.0 219.1L304.0 219.1Q303.4 219.1 302.9 219.5Q302.3 219.8 302.1 220.3Q301.8 220.8 301.8 221.4L301.8 221.4Q301.8 222.0 302.1 222.6Q302.4 223.2 303.0 223.9Q303.5 224.5 304.1 225.2L304.1 225.2L312.1 235L309.6 235L303.0 227.0Q302.1 225.9 301.4 225.0Q300.6 224.1 300.2 223.2Q299.7 222.4 299.7 221.3L299.7 221.3Q299.7 220.2 300.3 219.3Q300.8 218.4 301.7 217.9Q302.7 217.4 304.0 217.4L304.0 217.4Q305.3 217.4 306.2 217.9Q307.2 218.4 307.7 219.2Q308.2 220.1 308.2 221.0L308.2 221.0Q308.2 222.3 307.6 223.2Q306.9 224.1 305.9 224.9L305.9 224.9L302.4 227.5Q301.2 228.4 300.8 229.2Q300.4 230.0 300.4 230.4L300.4 230.4Q300.4 231.2 300.8 231.9Q301.2 232.6 302.0 233.0Q302.8 233.5 303.8 233.5L303.8 233.5Q304.8 233.5 305.7 233.0Q306.7 232.6 307.4 231.8Q308.2 231.0 308.7 229.9Q309.1 228.8 309.1 227.4L309.1 227.4L311.0 227.4Q311.0 229.1 310.6 230.2Q310.2 231.3 309.7 231.9Q309.2 232.5 308.9 232.9L308.9 232.9Q308.8 233.0 308.7 233.1Q308.7 233.2 308.6 233.4L308.6 233.4Q307.7 234.3 306.4 234.8Q305.1 235.2 303.9 235.2Z M332.9 221.9L330.9 221.9Q330.7 220.6 329.6 219.9Q328.5 219.2 326.9 219.2L326.9 219.2Q325.8 219.2 324.9 219.6Q324.0 219.9 323.6 220.6Q323.1 221.2 323.1 222.1L323.1 222.1Q323.1 222.8 323.4 223.3Q323.8 223.8 324.3 224.1Q324.8 224.4 325.4 224.6Q326.0 224.8 326.5 225.0L326.5 225.0L328.2 225.5Q328.9 225.6 329.7 225.9Q330.6 226.3 331.4 226.8Q332.1 227.3 332.6 228.2Q333.1 229.0 333.1 230.3L333.1 230.3Q333.1 231.7 332.4 232.8Q331.7 234.0 330.3 234.6Q328.8 235.3 326.8 235.3L326.8 235.3Q325.0 235.3 323.6 234.7Q322.2 234.1 321.4 233.0Q320.7 231.9 320.6 230.5L320.6 230.5L322.7 230.5Q322.8 231.5 323.4 232.1Q324.0 232.8 324.9 233.1Q325.8 233.4 326.8 233.4L326.8 233.4Q328.0 233.4 329.0 233.0Q330.0 232.6 330.5 231.9Q331.1 231.2 331.1 230.2L331.1 230.2Q331.1 229.4 330.6 228.8Q330.1 228.3 329.3 227.9Q328.5 227.6 327.6 227.3L327.6 227.3L325.5 226.7Q323.4 226.1 322.2 225.0Q321.0 223.9 321.0 222.2L321.0 222.2Q321.0 220.7 321.8 219.6Q322.6 218.5 324.0 217.9Q325.3 217.3 327 217.3L327 217.3Q328.7 217.3 330 217.9Q331.3 218.5 332.1 219.5Q332.9 220.6 332.9 221.9L332.9 221.9ZM341.8 235.3L341.8 235.3Q339.9 235.3 338.6 234.4Q337.2 233.6 336.5 232.1Q335.7 230.6 335.7 228.6L335.7 228.6Q335.7 226.5 336.5 225.0Q337.2 223.5 338.5 222.6Q339.9 221.7 341.6 221.7L341.6 221.7Q342.6 221.7 343.6 222.1Q344.6 222.4 345.5 223.2Q346.3 223.9 346.8 225.2Q347.3 226.5 347.3 228.3L347.3 228.3L347.3 229.1L337.2 229.1L337.2 227.4L345.2 227.4Q345.2 226.3 344.8 225.4Q344.3 224.6 343.5 224.0Q342.7 223.5 341.6 223.5L341.6 223.5Q340.4 223.5 339.5 224.1Q338.7 224.7 338.2 225.7Q337.7 226.6 337.7 227.7L337.7 227.7L337.7 228.9Q337.7 230.3 338.3 231.4Q338.8 232.4 339.7 232.9Q340.6 233.5 341.8 233.5L341.8 233.5Q342.6 233.5 343.3 233.2Q343.9 233.0 344.4 232.6Q344.8 232.1 345.1 231.4L345.1 231.4L347.0 232.0Q346.7 233.0 346.0 233.7Q345.3 234.4 344.2 234.9Q343.2 235.3 341.8 235.3ZM355.6 235.3L355.6 235.3Q353.8 235.3 352.5 234.4Q351.1 233.5 350.4 232.0Q349.7 230.5 349.7 228.5L349.7 228.5Q349.7 226.5 350.4 225.0Q351.2 223.5 352.5 222.6Q353.8 221.7 355.6 221.7L355.6 221.7Q357.0 221.7 358.1 222.3Q359.2 222.8 359.9 223.7Q360.6 224.6 360.8 225.8L360.8 225.8L358.8 225.8Q358.5 224.9 357.8 224.2Q357.0 223.5 355.6 223.5L355.6 223.5Q354.5 223.5 353.6 224.2Q352.7 224.8 352.2 225.9Q351.7 227.0 351.7 228.5L351.7 228.5Q351.7 230.0 352.2 231.1Q352.7 232.2 353.6 232.8Q354.4 233.5 355.6 233.5L355.6 233.5Q356.4 233.5 357.1 233.2Q357.7 232.9 358.1 232.4Q358.6 231.9 358.8 231.2L358.8 231.2L360.8 231.2Q360.6 232.3 359.9 233.3Q359.3 234.2 358.2 234.7Q357.1 235.3 355.6 235.3ZM372.0 229.6L372.0 229.6L372.0 221.9L374.0 221.9L374.0 235L372.0 235L372.0 232.8L371.8 232.8Q371.4 233.8 370.4 234.5Q369.4 235.2 367.9 235.2L367.9 235.2Q366.7 235.2 365.8 234.6Q364.8 234.1 364.3 233.0Q363.7 231.9 363.7 230.2L363.7 230.2L363.7 221.9L365.7 221.9L365.7 230.1Q365.7 231.5 366.5 232.4Q367.3 233.2 368.6 233.2L368.6 233.2Q369.3 233.2 370.1 232.8Q370.9 232.5 371.4 231.7Q372.0 230.9 372.0 229.6ZM379.7 235L377.7 235L377.7 221.9L379.6 221.9L379.6 223.9L379.7 223.9Q380.1 222.9 381.0 222.3Q382.0 221.7 383.1 221.7L383.1 221.7Q383.4 221.7 383.7 221.7Q384.0 221.7 384.2 221.7L384.2 221.7L384.2 223.8Q384.1 223.8 383.7 223.7Q383.4 223.6 383.0 223.6L383.0 223.6Q382.0 223.6 381.3 224.0Q380.5 224.4 380.1 225.1Q379.7 225.8 379.7 226.7L379.7 226.7L379.7 235ZM388.6 235L386.6 235L386.6 221.9L388.6 221.9L388.6 235ZM387.6 219.7L387.6 219.7Q387.0 219.7 386.6 219.3Q386.2 218.9 386.2 218.4L386.2 218.4Q386.2 217.8 386.6 217.4Q387.0 217 387.6 217L387.6 217Q388.2 217 388.6 217.4Q389.0 217.8 389.0 218.4L389.0 218.4Q389.0 218.9 388.6 219.3Q388.2 219.7 387.6 219.7ZM391.2 221.9L398.0 221.9L398.0 223.6L391.2 223.6L391.2 221.9ZM393.2 231.8L393.2 218.8L395.2 218.8L395.2 231.3Q395.2 232.1 395.4 232.5Q395.7 232.9 396.1 233.1Q396.5 233.2 396.9 233.2L396.9 233.2Q397.3 233.2 397.5 233.2Q397.7 233.2 397.8 233.1L397.8 233.1L398.2 234.9Q398.0 235.0 397.6 235.1Q397.3 235.2 396.7 235.2L396.7 235.2Q395.9 235.2 395.0 234.8Q394.2 234.4 393.7 233.7Q393.2 232.9 393.2 231.8L393.2 231.8ZM402.3 239.9L402.3 239.9Q401.8 239.9 401.4 239.8Q401.0 239.7 400.8 239.7L400.8 239.7L401.4 237.9Q402.1 238.1 402.6 238.0Q403.2 238.0 403.6 237.5Q404.1 237.1 404.5 236.1L404.5 236.1L404.8 235.1L400.0 221.9L402.2 221.9L405.8 232.3L405.9 232.3L409.5 221.9L411.7 221.9L406.2 236.9Q405.8 237.9 405.2 238.6Q404.7 239.3 403.9 239.6Q403.2 239.9 402.3 239.9Z M433.0 221.9L430.9 221.9Q430.8 220.6 429.7 219.9Q428.6 219.2 427.0 219.2L427.0 219.2Q425.9 219.2 425.0 219.6Q424.1 219.9 423.7 220.6Q423.2 221.2 423.2 222.1L423.2 222.1Q423.2 222.8 423.5 223.3Q423.8 223.8 424.4 224.1Q424.9 224.4 425.5 224.6Q426.1 224.8 426.5 225.0L426.5 225.0L428.3 225.5Q429.0 225.6 429.8 225.9Q430.7 226.3 431.5 226.8Q432.2 227.3 432.7 228.2Q433.2 229.0 433.2 230.3L433.2 230.3Q433.2 231.7 432.5 232.8Q431.8 234.0 430.3 234.6Q428.9 235.3 426.9 235.3L426.9 235.3Q425.0 235.3 423.7 234.7Q422.3 234.1 421.5 233.0Q420.7 231.9 420.6 230.5L420.6 230.5L422.8 230.5Q422.9 231.5 423.5 232.1Q424.1 232.8 425.0 233.1Q425.9 233.4 426.9 233.4L426.9 233.4Q428.1 233.4 429.1 233.0Q430.1 232.6 430.6 231.9Q431.2 231.2 431.2 230.2L431.2 230.2Q431.2 229.4 430.7 228.8Q430.2 228.3 429.4 227.9Q428.6 227.6 427.7 227.3L427.7 227.3L425.6 226.7Q423.5 226.1 422.3 225.0Q421.1 223.9 421.1 222.2L421.1 222.2Q421.1 220.7 421.9 219.6Q422.7 218.5 424.1 217.9Q425.4 217.3 427.1 217.3L427.1 217.3Q428.8 217.3 430.1 217.9Q431.4 218.5 432.2 219.5Q432.9 220.6 433.0 221.9L433.0 221.9ZM438.4 239.9L436.4 239.9L436.4 221.9L438.4 221.9L438.4 224.0L438.6 224.0Q438.8 223.6 439.2 223.1Q439.6 222.6 440.4 222.2Q441.1 221.7 442.4 221.7L442.4 221.7Q444.1 221.7 445.3 222.6Q446.6 223.4 447.3 224.9Q448.0 226.4 448.0 228.5L448.0 228.5Q448.0 230.6 447.3 232.1Q446.6 233.6 445.3 234.4Q444.1 235.3 442.4 235.3L442.4 235.3Q441.2 235.3 440.4 234.9Q439.7 234.4 439.2 233.9Q438.8 233.3 438.6 233.0L438.6 233.0L438.4 233.0L438.4 239.9ZM438.4 228.5L438.4 228.5Q438.4 229.9 438.8 231.1Q439.3 232.2 440.1 232.8Q440.9 233.5 442.2 233.5L442.2 233.5Q443.4 233.5 444.3 232.8Q445.1 232.1 445.5 231.0Q446.0 229.9 446.0 228.5L446.0 228.5Q446.0 227.1 445.6 226.0Q445.1 224.8 444.3 224.2Q443.4 223.5 442.2 223.5L442.2 223.5Q440.9 223.5 440.1 224.2Q439.3 224.8 438.8 225.9Q438.4 227.0 438.4 228.5ZM456.5 235.3L456.5 235.3Q454.7 235.3 453.3 234.4Q451.9 233.6 451.2 232.1Q450.4 230.6 450.4 228.6L450.4 228.6Q450.4 226.5 451.2 225.0Q451.9 223.5 453.2 222.6Q454.6 221.7 456.3 221.7L456.3 221.7Q457.4 221.7 458.4 222.1Q459.4 222.4 460.2 223.2Q461.0 223.9 461.5 225.2Q462.0 226.5 462.0 228.3L462.0 228.3L462.0 229.1L451.9 229.1L451.9 227.4L459.9 227.4Q459.9 226.3 459.5 225.4Q459.0 224.6 458.2 224.0Q457.4 223.5 456.3 223.5L456.3 223.5Q455.1 223.5 454.3 224.1Q453.4 224.7 452.9 225.7Q452.5 226.6 452.5 227.7L452.5 227.7L452.5 228.9Q452.5 230.3 453.0 231.4Q453.5 232.4 454.4 232.9Q455.3 233.5 456.5 233.5L456.5 233.5Q457.3 233.5 458.0 233.2Q458.6 233.0 459.1 232.6Q459.6 232.1 459.8 231.4L459.8 231.4L461.8 232.0Q461.5 233.0 460.7 233.7Q460.0 234.4 458.9 234.9Q457.9 235.3 456.5 235.3ZM470.4 235.3L470.4 235.3Q468.5 235.3 467.2 234.4Q465.9 233.5 465.1 232.0Q464.4 230.5 464.4 228.5L464.4 228.5Q464.4 226.5 465.2 225.0Q465.9 223.5 467.2 222.6Q468.5 221.7 470.3 221.7L470.3 221.7Q471.7 221.7 472.8 222.3Q473.9 222.8 474.6 223.7Q475.3 224.6 475.5 225.8L475.5 225.8L473.5 225.8Q473.3 224.9 472.5 224.2Q471.7 223.5 470.4 223.5L470.4 223.5Q469.2 223.5 468.3 224.2Q467.4 224.8 466.9 225.9Q466.4 227.0 466.4 228.5L466.4 228.5Q466.4 230.0 466.9 231.1Q467.4 232.2 468.3 232.8Q469.2 233.5 470.4 233.5L470.4 233.5Q471.1 233.5 471.8 233.2Q472.4 232.9 472.9 232.4Q473.3 231.9 473.5 231.2L473.5 231.2L475.5 231.2Q475.3 232.3 474.7 233.3Q474.0 234.2 472.9 234.7Q471.8 235.3 470.4 235.3ZM480.4 235L478.4 235L478.4 221.9L480.4 221.9L480.4 235ZM479.5 219.7L479.5 219.7Q478.9 219.7 478.4 219.3Q478.0 218.9 478.0 218.4L478.0 218.4Q478.0 217.8 478.4 217.4Q478.9 217 479.5 217L479.5 217Q480.0 217 480.5 217.4Q480.9 217.8 480.9 218.4L480.9 218.4Q480.9 218.9 480.5 219.3Q480.0 219.7 479.5 219.7ZM488.0 235.3L488.0 235.3Q486.7 235.3 485.7 234.8Q484.7 234.4 484.1 233.5Q483.5 232.6 483.5 231.3L483.5 231.3Q483.5 230.2 484.0 229.5Q484.4 228.8 485.1 228.4Q485.9 228.0 486.8 227.8Q487.7 227.6 488.6 227.4L488.6 227.4Q489.8 227.3 490.5 227.2Q491.3 227.1 491.6 226.9Q492.0 226.7 492.0 226.2L492.0 226.2L492.0 226.2Q492.0 224.9 491.3 224.2Q490.6 223.5 489.2 223.5L489.2 223.5Q487.8 223.5 486.9 224.1Q486.1 224.8 485.8 225.5L485.8 225.5L483.9 224.8Q484.4 223.6 485.3 222.9Q486.1 222.3 487.1 222.0Q488.1 221.7 489.1 221.7L489.1 221.7Q489.8 221.7 490.6 221.9Q491.4 222.0 492.2 222.5Q493.0 223.0 493.5 223.9Q494.0 224.8 494.0 226.4L494.0 226.4L494.0 235L492.0 235L492.0 233.2L491.9 233.2Q491.7 233.7 491.2 234.1Q490.7 234.6 489.9 235.0Q489.1 235.3 488.0 235.3ZM488.3 233.5L488.3 233.5Q489.5 233.5 490.3 233.0Q491.1 232.6 491.5 231.8Q492.0 231.1 492.0 230.3L492.0 230.3L492.0 228.4Q491.8 228.6 491.4 228.7Q491.0 228.8 490.4 228.9Q489.9 229 489.3 229.1Q488.8 229.1 488.5 229.2L488.5 229.2Q487.7 229.3 487.0 229.5Q486.3 229.7 485.9 230.2Q485.5 230.6 485.5 231.4L485.5 231.4Q485.5 232.4 486.3 233.0Q487.1 233.5 488.3 233.5ZM497.7 217.5L499.7 217.5L499.7 235L497.7 235L497.7 217.5ZM505.4 235L503.4 235L503.4 221.9L505.4 221.9L505.4 235ZM504.4 219.7L504.4 219.7Q503.8 219.7 503.4 219.3Q502.9 218.9 502.9 218.4L502.9 218.4Q502.9 217.8 503.4 217.4Q503.8 217 504.4 217L504.4 217Q505.0 217 505.4 217.4Q505.8 217.8 505.8 218.4L505.8 218.4Q505.8 218.9 505.4 219.3Q505.0 219.7 504.4 219.7ZM518.3 224.8L518.3 224.8L516.5 225.4Q516.3 224.9 516.0 224.5Q515.7 224.0 515.1 223.8Q514.6 223.5 513.7 223.5L513.7 223.5Q512.5 223.5 511.7 224.0Q510.9 224.6 510.9 225.4L510.9 225.4Q510.9 226.2 511.4 226.6Q512.0 227.0 513.1 227.3L513.1 227.3L515.1 227.8Q516.8 228.2 517.7 229.1Q518.6 230.0 518.6 231.4L518.6 231.4Q518.6 232.5 517.9 233.4Q517.3 234.3 516.1 234.8Q515.0 235.3 513.4 235.3L513.4 235.3Q511.4 235.3 510.1 234.4Q508.8 233.5 508.5 231.9L508.5 231.9L510.4 231.4Q510.6 232.4 511.4 233.0Q512.2 233.5 513.4 233.5L513.4 233.5Q514.8 233.5 515.6 232.9Q516.5 232.3 516.5 231.5L516.5 231.5Q516.5 230.8 516 230.3Q515.5 229.8 514.5 229.6L514.5 229.6L512.4 229.1Q510.6 228.7 509.7 227.8Q508.9 226.9 508.9 225.5L508.9 225.5Q508.9 224.4 509.5 223.6Q510.1 222.7 511.2 222.2Q512.3 221.7 513.7 221.7L513.7 221.7Q515.6 221.7 516.7 222.6Q517.8 223.4 518.3 224.8ZM520.5 221.9L527.3 221.9L527.3 223.6L520.5 223.6L520.5 221.9ZM522.5 231.8L522.5 218.8L524.5 218.8L524.5 231.3Q524.5 232.1 524.7 232.5Q525.0 232.9 525.4 233.1Q525.8 233.2 526.2 233.2L526.2 233.2Q526.6 233.2 526.8 233.2Q527.0 233.2 527.1 233.1L527.1 233.1L527.5 234.9Q527.3 235.0 527.0 235.1Q526.6 235.2 526.0 235.2L526.0 235.2Q525.2 235.2 524.4 234.8Q523.5 234.4 523.0 233.7Q522.5 232.9 522.5 231.8L522.5 231.8Z "/></g><mask id="satori_om-id-0-1-3"><rect x="81" y="251" width="638" height="19" fill="#fff" mask="url(#satori_om-id-0)"/></mask><mask id="satori_om-id-0-1-3-0"><rect x="81" y="251" width="52" height="19" fill="#fff" mask="url(#satori_om-id-0)"/></mask><g mask="url(#satori_om-id-0)" clip-path="url(#satori_cp-id-0)"><path fill="#66a4de" d="M85.8 270.5L85.8 270.5Q84.8 270.5 84.1 270.2Q83.4 270.0 82.9 269.6Q82.5 269.2 82.2 268.7L82.2 268.7L83.3 268.0Q83.4 268.2 83.7 268.5Q84.0 268.8 84.5 269.0Q85.0 269.3 85.8 269.3L85.8 269.3Q86.8 269.3 87.5 268.8Q88.2 268.3 88.2 267.2L88.2 267.2L88.2 265.4L88.1 265.4Q87.9 265.6 87.7 266.0Q87.4 266.3 86.9 266.6Q86.4 266.9 85.5 266.9L85.5 266.9Q84.5 266.9 83.6 266.4Q82.8 265.9 82.3 264.9Q81.8 264.0 81.8 262.6L81.8 262.6Q81.8 261.3 82.3 260.3Q82.8 259.3 83.6 258.7Q84.4 258.2 85.5 258.2L85.5 258.2Q86.4 258.2 86.9 258.4Q87.4 258.7 87.7 259.1Q87.9 259.4 88.1 259.7L88.1 259.7L88.2 259.7L88.2 258.3L89.5 258.3L89.5 267.3Q89.5 268.4 89.0 269.1Q88.5 269.8 87.7 270.1Q86.8 270.5 85.8 270.5ZM85.7 265.7L85.7 265.7Q86.5 265.7 87.1 265.3Q87.6 264.9 87.9 264.2Q88.2 263.5 88.2 262.6L88.2 262.6Q88.2 261.6 87.9 260.9Q87.6 260.2 87.1 259.8Q86.5 259.4 85.7 259.4L85.7 259.4Q84.9 259.4 84.3 259.8Q83.7 260.2 83.4 261.0Q83.2 261.7 83.2 262.6L83.2 262.6Q83.2 263.5 83.4 264.2Q83.7 264.9 84.3 265.3Q84.9 265.7 85.7 265.7ZM95.5 267.2L95.5 267.2Q94.3 267.2 93.5 266.6Q92.6 266.1 92.1 265.0Q91.6 264.0 91.6 262.7L91.6 262.7Q91.6 261.3 92.1 260.3Q92.6 259.3 93.5 258.7Q94.3 258.2 95.5 258.2L95.5 258.2Q96.7 258.2 97.6 258.7Q98.5 259.3 99.0 260.3Q99.5 261.3 99.5 262.7L99.5 262.7Q99.5 264.0 99.0 265.0Q98.5 266.1 97.6 266.6Q96.7 267.2 95.5 267.2ZM95.5 266.0L95.5 266.0Q96.4 266.0 97 265.5Q97.6 265.1 97.9 264.3Q98.1 263.6 98.1 262.7L98.1 262.7Q98.1 261.8 97.9 261.1Q97.6 260.3 97 259.8Q96.4 259.4 95.5 259.4L95.5 259.4Q94.6 259.4 94.0 259.8Q93.5 260.3 93.2 261.1Q92.9 261.8 92.9 262.7L92.9 262.7Q92.9 263.6 93.2 264.3Q93.5 265.1 94.0 265.5Q94.6 266.0 95.5 266.0ZM101.5 255.4L102.9 255.4L102.9 267L101.5 267L101.5 255.4ZM107.9 267.2L107.9 267.2Q107.1 267.2 106.4 266.9Q105.7 266.6 105.3 266.0Q104.9 265.4 104.9 264.5L104.9 264.5Q104.9 263.8 105.2 263.3Q105.5 262.8 106.0 262.6Q106.5 262.3 107.1 262.2Q107.7 262.0 108.3 262.0L108.3 262.0Q109.1 261.9 109.6 261.8Q110.1 261.7 110.3 261.6Q110.5 261.5 110.5 261.2L110.5 261.2L110.5 261.1Q110.5 260.3 110.1 259.8Q109.6 259.3 108.7 259.3L108.7 259.3Q107.7 259.3 107.2 259.8Q106.7 260.2 106.4 260.7L106.4 260.7L105.2 260.2Q105.5 259.4 106.1 259.0Q106.6 258.5 107.3 258.3Q108 258.2 108.7 258.2L108.7 258.2Q109.1 258.2 109.6 258.3Q110.2 258.4 110.7 258.7Q111.2 259.0 111.5 259.6Q111.9 260.2 111.9 261.3L111.9 261.3L111.9 267L110.5 267L110.5 265.8L110.5 265.8Q110.3 266.1 110.0 266.4Q109.7 266.8 109.2 267.0Q108.6 267.2 107.9 267.2ZM108.1 266L108.1 266Q108.9 266 109.4 265.7Q110.0 265.4 110.3 264.9Q110.5 264.4 110.5 263.8L110.5 263.8L110.5 262.6Q110.5 262.7 110.2 262.8Q109.9 262.9 109.5 262.9Q109.1 263 108.8 263.0Q108.4 263.1 108.2 263.1L108.2 263.1Q107.7 263.2 107.3 263.3Q106.8 263.5 106.5 263.8Q106.3 264.1 106.3 264.6L106.3 264.6Q106.3 265.3 106.8 265.6Q107.3 266 108.1 266ZM115.7 261.8L115.7 261.8L115.7 267L114.3 267L114.3 258.3L115.6 258.3L115.6 259.6L115.8 259.6Q116.1 259.0 116.7 258.6Q117.3 258.2 118.3 258.2L118.3 258.2Q119.2 258.2 119.8 258.5Q120.5 258.9 120.9 259.6Q121.3 260.3 121.3 261.5L121.3 261.5L121.3 267L119.9 267L119.9 261.5Q119.9 260.5 119.4 259.9Q118.8 259.4 117.9 259.4L117.9 259.4Q117.3 259.4 116.8 259.6Q116.3 259.9 116.0 260.5Q115.7 261.0 115.7 261.8ZM127.2 270.5L127.2 270.5Q126.3 270.5 125.6 270.2Q124.9 270.0 124.4 269.6Q123.9 269.2 123.7 268.7L123.7 268.7L124.7 268.0Q124.9 268.2 125.2 268.5Q125.5 268.8 126.0 269.0Q126.4 269.3 127.2 269.3L127.2 269.3Q128.3 269.3 129.0 268.8Q129.7 268.3 129.7 267.2L129.7 267.2L129.7 265.4L129.5 265.4Q129.4 265.6 129.1 266.0Q128.9 266.3 128.4 266.6Q127.9 266.9 127 266.9L127 266.9Q125.9 266.9 125.1 266.4Q124.3 265.9 123.8 264.9Q123.3 264.0 123.3 262.6L123.3 262.6Q123.3 261.3 123.8 260.3Q124.2 259.3 125.1 258.7Q125.9 258.2 127.0 258.2L127.0 258.2Q127.9 258.2 128.4 258.4Q128.9 258.7 129.2 259.1Q129.4 259.4 129.6 259.7L129.6 259.7L129.7 259.7L129.7 258.3L131 258.3L131 267.3Q131 268.4 130.5 269.1Q130.0 269.8 129.1 270.1Q128.3 270.5 127.2 270.5ZM127.2 265.7L127.2 265.7Q128.0 265.7 128.5 265.3Q129.1 264.9 129.4 264.2Q129.7 263.5 129.7 262.6L129.7 262.6Q129.7 261.6 129.4 260.9Q129.1 260.2 128.6 259.8Q128 259.4 127.2 259.4L127.2 259.4Q126.3 259.4 125.8 259.8Q125.2 260.2 124.9 261.0Q124.6 261.7 124.6 262.6L124.6 262.6Q124.6 263.5 124.9 264.2Q125.2 264.9 125.8 265.3Q126.3 265.7 127.2 265.7Z "/></g><mask id="satori_om-id-0-1-3-1"><rect x="141" y="251" width="6" height="19" fill="#fff" mask="url(#satori_om-id-0)"/></mask><g mask="url(#satori_om-id-0)" clip-path="url(#satori_cp-id-0)"><path fill="#9ca3af" d="M143.0 251.6L144.2 251.6L144.2 270.8L143.0 270.8L143.0 251.6Z "/></g><mask id="satori_om-id-0-1-3-2"><rect x="155" y="251" width="77" height="19" fill="#fff" mask="url(#satori_om-id-0)"/></mask><g mask="url(#satori_om-id-0)" clip-path="url(#satori_cp-id-0)"><path fill="#66a4de" d="M155.5 258.3L160.0 258.3L160.0 259.4L155.5 259.4L155.5 258.3ZM156.8 264.9L156.8 256.2L158.2 256.2L158.2 264.5Q158.2 265.1 158.3 265.3Q158.5 265.6 158.8 265.7Q159.0 265.8 159.3 265.8L159.3 265.8Q159.5 265.8 159.7 265.8Q159.8 265.8 159.9 265.8L159.9 265.8L160.2 267.0Q160.0 267.0 159.8 267.1Q159.6 267.1 159.2 267.1L159.2 267.1Q158.6 267.1 158.1 266.9Q157.5 266.6 157.2 266.1Q156.8 265.6 156.8 264.9L156.8 264.9ZM162.9 270.3L162.9 270.3Q162.6 270.3 162.3 270.2Q162.0 270.2 161.9 270.1L161.9 270.1L162.3 268.9Q162.8 269.1 163.1 269.0Q163.5 269.0 163.8 268.7Q164.1 268.4 164.3 267.7L164.3 267.7L164.6 267.0L161.4 258.3L162.8 258.3L165.2 265.2L165.3 265.2L167.7 258.3L169.2 258.3L165.5 268.3Q165.2 268.9 164.9 269.4Q164.5 269.8 164.0 270.1Q163.5 270.3 162.9 270.3ZM172.3 270.3L171.0 270.3L171.0 258.3L172.3 258.3L172.3 259.7L172.4 259.7Q172.6 259.4 172.8 259.1Q173.1 258.7 173.6 258.4Q174.1 258.2 174.9 258.2L174.9 258.2Q176.0 258.2 176.9 258.7Q177.7 259.3 178.2 260.3Q178.7 261.3 178.7 262.7L178.7 262.7Q178.7 264.0 178.2 265.1Q177.7 266.1 176.9 266.6Q176.0 267.2 175.0 267.2L175.0 267.2Q174.1 267.2 173.6 266.9Q173.1 266.6 172.8 266.3Q172.6 265.9 172.4 265.7L172.4 265.7L172.3 265.7L172.3 270.3ZM172.3 262.6L172.3 262.6Q172.3 263.6 172.6 264.4Q172.9 265.1 173.4 265.6Q174.0 266.0 174.8 266.0L174.8 266.0Q175.6 266.0 176.2 265.5Q176.7 265.1 177.0 264.3Q177.3 263.6 177.3 262.6L177.3 262.6Q177.3 261.7 177.0 261.0Q176.8 260.2 176.2 259.8Q175.6 259.4 174.8 259.4L174.8 259.4Q174.0 259.4 173.4 259.8Q172.8 260.2 172.6 260.9Q172.3 261.7 172.3 262.6ZM184.4 267.2L184.4 267.2Q183.1 267.2 182.2 266.6Q181.3 266.1 180.8 265.1Q180.3 264.0 180.3 262.7L180.3 262.7Q180.3 261.4 180.8 260.3Q181.3 259.3 182.2 258.7Q183.0 258.2 184.2 258.2L184.2 258.2Q184.9 258.2 185.6 258.4Q186.2 258.6 186.8 259.1Q187.3 259.6 187.7 260.5Q188.0 261.3 188.0 262.5L188.0 262.5L188.0 263.1L181.3 263.1L181.3 261.9L186.6 261.9Q186.6 261.2 186.3 260.6Q186.0 260.0 185.5 259.7Q185.0 259.4 184.2 259.4L184.2 259.4Q183.4 259.4 182.8 259.8Q182.3 260.2 181.9 260.8Q181.6 261.4 181.6 262.1L181.6 262.1L181.6 262.9Q181.6 263.9 182.0 264.6Q182.3 265.3 182.9 265.6Q183.6 266.0 184.4 266.0L184.4 266.0Q184.9 266.0 185.3 265.8Q185.8 265.7 186.1 265.4Q186.4 265.1 186.5 264.6L186.5 264.6L187.8 265.0Q187.6 265.6 187.2 266.1Q186.7 266.6 186.0 266.9Q185.3 267.2 184.4 267.2ZM196.2 260.2L196.2 260.2L195 260.6Q194.9 260.3 194.7 260.0Q194.4 259.7 194.1 259.5Q193.7 259.3 193.1 259.3L193.1 259.3Q192.3 259.3 191.8 259.7Q191.3 260.1 191.3 260.6L191.3 260.6Q191.3 261.1 191.6 261.4Q192.0 261.7 192.8 261.9L192.8 261.9L194.0 262.2Q195.2 262.5 195.8 263.1Q196.4 263.7 196.4 264.6L196.4 264.6Q196.4 265.3 195.9 265.9Q195.5 266.5 194.7 266.8Q194.0 267.2 193.0 267.2L193.0 267.2Q191.6 267.2 190.7 266.6Q189.9 266.0 189.6 264.9L189.6 264.9L190.9 264.6Q191.1 265.3 191.6 265.6Q192.1 266 192.9 266L192.9 266Q193.9 266 194.4 265.6Q195.0 265.2 195.0 264.6L195.0 264.6Q195.0 264.2 194.7 263.9Q194.3 263.6 193.7 263.4L193.7 263.4L192.2 263.1Q191.0 262.8 190.5 262.2Q189.9 261.6 189.9 260.7L189.9 260.7Q189.9 259.9 190.3 259.4Q190.7 258.8 191.5 258.5Q192.2 258.2 193.1 258.2L193.1 258.2Q194.4 258.2 195.2 258.7Q195.9 259.3 196.2 260.2ZM201.9 267.2L201.9 267.2Q200.7 267.2 199.8 266.6Q198.9 266.0 198.5 265.0Q198.0 264.0 198.0 262.7L198.0 262.7Q198.0 261.4 198.5 260.3Q199.0 259.3 199.8 258.7Q200.7 258.2 201.9 258.2L201.9 258.2Q202.8 258.2 203.6 258.5Q204.3 258.8 204.8 259.5Q205.3 260.1 205.4 260.9L205.4 260.9L204.0 260.9Q203.9 260.3 203.3 259.8Q202.8 259.4 201.9 259.4L201.9 259.4Q201.1 259.4 200.6 259.8Q200.0 260.2 199.6 260.9Q199.3 261.6 199.3 262.6L199.3 262.6Q199.3 263.6 199.6 264.4Q200.0 265.1 200.5 265.6Q201.1 266.0 201.9 266.0L201.9 266.0Q202.5 266.0 202.9 265.8Q203.3 265.6 203.6 265.3Q203.9 264.9 204.0 264.5L204.0 264.5L205.4 264.5Q205.3 265.2 204.8 265.8Q204.4 266.5 203.6 266.8Q202.9 267.2 201.9 267.2ZM208.7 267L207.3 267L207.3 258.3L208.6 258.3L208.6 259.6L208.7 259.6Q208.9 258.9 209.6 258.5Q210.2 258.1 211.0 258.1L211.0 258.1Q211.1 258.1 211.3 258.1Q211.6 258.1 211.7 258.2L211.7 258.2L211.7 259.5Q211.6 259.5 211.4 259.5Q211.1 259.4 210.9 259.4L210.9 259.4Q210.2 259.4 209.7 259.7Q209.2 260.0 208.9 260.4Q208.7 260.9 208.7 261.5L208.7 261.5L208.7 267ZM214.6 267L213.3 267L213.3 258.3L214.6 258.3L214.6 267ZM214.0 256.8L214.0 256.8Q213.6 256.8 213.3 256.6Q213.0 256.3 213.0 255.9L213.0 255.9Q213.0 255.5 213.3 255.3Q213.6 255 214.0 255L214.0 255Q214.3 255 214.6 255.3Q214.9 255.5 214.9 255.9L214.9 255.9Q214.9 256.3 214.6 256.6Q214.3 256.8 214.0 256.8ZM218.4 270.3L217.1 270.3L217.1 258.3L218.4 258.3L218.4 259.7L218.5 259.7Q218.7 259.4 218.9 259.1Q219.2 258.7 219.7 258.4Q220.2 258.2 221.0 258.2L221.0 258.2Q222.1 258.2 223.0 258.7Q223.8 259.3 224.3 260.3Q224.8 261.3 224.8 262.7L224.8 262.7Q224.8 264.0 224.3 265.1Q223.8 266.1 223.0 266.6Q222.2 267.2 221.1 267.2L221.1 267.2Q220.2 267.2 219.7 266.9Q219.2 266.6 218.9 266.3Q218.7 265.9 218.5 265.7L218.5 265.7L218.4 265.7L218.4 270.3ZM218.4 262.6L218.4 262.6Q218.4 263.6 218.7 264.4Q219.0 265.1 219.5 265.6Q220.1 266.0 220.9 266.0L220.9 266.0Q221.7 266.0 222.3 265.5Q222.9 265.1 223.1 264.3Q223.4 263.6 223.4 262.6L223.4 262.6Q223.4 261.7 223.2 261.0Q222.9 260.2 222.3 259.8Q221.7 259.4 220.9 259.4L220.9 259.4Q220.1 259.4 219.5 259.8Q219.0 260.2 218.7 260.9Q218.4 261.7 218.4 262.6ZM226.1 258.3L230.6 258.3L230.6 259.4L226.1 259.4L226.1 258.3ZM227.4 264.9L227.4 256.2L228.8 256.2L228.8 264.5Q228.8 265.1 228.9 265.3Q229.1 265.6 229.3 265.7Q229.6 265.8 229.9 265.8L229.9 265.8Q230.1 265.8 230.3 265.8Q230.4 265.8 230.5 265.8L230.5 265.8L230.8 267.0Q230.6 267.0 230.4 267.1Q230.1 267.1 229.8 267.1L229.8 267.1Q229.2 267.1 228.7 266.9Q228.1 266.6 227.8 266.1Q227.4 265.6 227.4 264.9L227.4 264.9Z "/></g><mask id="satori_om-id-0-1-3-3"><rect x="240" y="251" width="6" height="19" fill="#fff" mask="url(#satori_om-id-0)"/></mask><g mask="url(#satori_om-id-0)" clip-path="url(#satori_cp-id-0)"><path fill="#9ca3af" d="M242.0 251.6L243.2 251.6L243.2 270.8L242.0 270.8L242.0 251.6Z "/></g><mask id="satori_om-id-0-1-3-4"><rect x="254" y="251" width="86" height="19" fill="#fff" mask="url(#satori_om-id-0)"/></mask><g mask="url(#satori_om-id-0)" clip-path="url(#satori_cp-id-0)"><path fill="#66a4de" d="M258.0 262.4L256.5 263.8L256.5 262.2L256.7 262.2L260.5 258.3L262.2 258.3L258.1 262.4L258.0 262.4ZM256.6 267L255.2 267L255.2 255.4L256.6 255.4L256.6 267ZM262.5 267L260.8 267L257.4 262.7L258.3 261.8L262.5 267ZM269.4 263.4L269.4 263.4L269.4 258.3L270.8 258.3L270.8 267L269.4 267L269.4 265.5L269.3 265.5Q269.0 266.2 268.4 266.7Q267.7 267.1 266.8 267.1L266.8 267.1Q265.9 267.1 265.3 266.8Q264.7 266.4 264.3 265.7Q263.9 264.9 263.9 263.8L263.9 263.8L263.9 258.3L265.3 258.3L265.3 263.7Q265.3 264.7 265.8 265.3Q266.3 265.8 267.2 265.8L267.2 265.8Q267.7 265.8 268.2 265.6Q268.7 265.3 269.1 264.8Q269.4 264.3 269.4 263.4ZM274.7 267L273.4 267L273.4 255.4L274.8 255.4L274.8 259.7L274.9 259.7Q275.0 259.4 275.3 259.1Q275.5 258.7 276.0 258.4Q276.5 258.2 277.4 258.2L277.4 258.2Q278.5 258.2 279.3 258.7Q280.2 259.3 280.6 260.3Q281.1 261.3 281.1 262.7L281.1 262.7Q281.1 264.0 280.6 265.1Q280.2 266.1 279.3 266.6Q278.5 267.2 277.4 267.2L277.4 267.2Q276.6 267.2 276.1 266.9Q275.6 266.6 275.3 266.3Q275.0 265.9 274.9 265.7L274.9 265.7L274.7 265.7L274.7 267ZM274.7 262.6L274.7 262.6Q274.7 263.6 275.0 264.4Q275.3 265.1 275.9 265.6Q276.4 266.0 277.2 266.0L277.2 266.0Q278.1 266.0 278.6 265.5Q279.2 265.1 279.5 264.3Q279.8 263.6 279.8 262.6L279.8 262.6Q279.8 261.7 279.5 261.0Q279.2 260.2 278.6 259.8Q278.1 259.4 277.2 259.4L277.2 259.4Q276.4 259.4 275.9 259.8Q275.3 260.2 275.0 260.9Q274.7 261.7 274.7 262.6ZM286.8 267.2L286.8 267.2Q285.6 267.2 284.6 266.6Q283.7 266.1 283.2 265.1Q282.8 264.0 282.8 262.7L282.8 262.7Q282.8 261.4 283.2 260.3Q283.7 259.3 284.6 258.7Q285.5 258.2 286.7 258.2L286.7 258.2Q287.4 258.2 288.0 258.4Q288.7 258.6 289.2 259.1Q289.8 259.6 290.1 260.5Q290.4 261.3 290.4 262.5L290.4 262.5L290.4 263.1L283.7 263.1L283.7 261.9L289.1 261.9Q289.1 261.2 288.8 260.6Q288.5 260.0 287.9 259.7Q287.4 259.4 286.7 259.4L286.7 259.4Q285.9 259.4 285.3 259.8Q284.7 260.2 284.4 260.8Q284.1 261.4 284.1 262.1L284.1 262.1L284.1 262.9Q284.1 263.9 284.4 264.6Q284.8 265.3 285.4 265.6Q286.0 266.0 286.8 266.0L286.8 266.0Q287.3 266.0 287.8 265.8Q288.2 265.7 288.5 265.4Q288.8 265.1 289 264.6L289 264.6L290.3 265.0Q290.1 265.6 289.6 266.1Q289.1 266.6 288.4 266.9Q287.7 267.2 286.8 267.2ZM293.8 267L292.5 267L292.5 258.3L293.8 258.3L293.8 259.6L293.9 259.6Q294.1 258.9 294.7 258.5Q295.4 258.1 296.1 258.1L296.1 258.1Q296.3 258.1 296.5 258.1Q296.7 258.1 296.8 258.2L296.8 258.2L296.8 259.5Q296.8 259.5 296.5 259.5Q296.3 259.4 296.0 259.4L296.0 259.4Q295.4 259.4 294.9 259.7Q294.4 260.0 294.1 260.4Q293.8 260.9 293.8 261.5L293.8 261.5L293.8 267ZM299.8 261.8L299.8 261.8L299.8 267L298.4 267L298.4 258.3L299.7 258.3L299.7 259.6L299.8 259.6Q300.1 259.0 300.8 258.6Q301.4 258.2 302.4 258.2L302.4 258.2Q303.3 258.2 303.9 258.5Q304.6 258.9 305.0 259.6Q305.3 260.3 305.3 261.5L305.3 261.5L305.3 267L304 267L304 261.5Q304 260.5 303.5 259.9Q302.9 259.4 302 259.4L302 259.4Q301.4 259.4 300.9 259.6Q300.4 259.9 300.1 260.5Q299.8 261.0 299.8 261.8ZM311.5 267.2L311.5 267.2Q310.2 267.2 309.3 266.6Q308.4 266.1 307.9 265.1Q307.4 264.0 307.4 262.7L307.4 262.7Q307.4 261.4 307.9 260.3Q308.4 259.3 309.3 258.7Q310.1 258.2 311.3 258.2L311.3 258.2Q312 258.2 312.7 258.4Q313.3 258.6 313.9 259.1Q314.4 259.6 314.7 260.5Q315.1 261.3 315.1 262.5L315.1 262.5L315.1 263.1L308.3 263.1L308.3 261.9L313.7 261.9Q313.7 261.2 313.4 260.6Q313.1 260.0 312.6 259.7Q312.0 259.4 311.3 259.4L311.3 259.4Q310.5 259.4 309.9 259.8Q309.4 260.2 309.0 260.8Q308.7 261.4 308.7 262.1L308.7 262.1L308.7 262.9Q308.7 263.9 309.1 264.6Q309.4 265.3 310.0 265.6Q310.6 266.0 311.5 266.0L311.5 266.0Q312.0 266.0 312.4 265.8Q312.8 265.7 313.2 265.4Q313.5 265.1 313.6 264.6L313.6 264.6L314.9 265.0Q314.7 265.6 314.2 266.1Q313.8 266.6 313.1 266.9Q312.3 267.2 311.5 267.2ZM316.4 258.3L320.9 258.3L320.9 259.4L316.4 259.4L316.4 258.3ZM317.7 264.9L317.7 256.2L319.0 256.2L319.0 264.5Q319.0 265.1 319.2 265.3Q319.4 265.6 319.6 265.7Q319.9 265.8 320.2 265.8L320.2 265.8Q320.4 265.8 320.6 265.8Q320.7 265.8 320.8 265.8L320.8 265.8L321.1 267.0Q320.9 267.0 320.7 267.1Q320.4 267.1 320.1 267.1L320.1 267.1Q319.5 267.1 319.0 266.9Q318.4 266.6 318.1 266.1Q317.7 265.6 317.7 264.9L317.7 264.9ZM326.5 267.2L326.5 267.2Q325.2 267.2 324.3 266.6Q323.4 266.1 322.9 265.1Q322.4 264.0 322.4 262.7L322.4 262.7Q322.4 261.4 322.9 260.3Q323.4 259.3 324.3 258.7Q325.2 258.2 326.4 258.2L326.4 258.2Q327.0 258.2 327.7 258.4Q328.4 258.6 328.9 259.1Q329.5 259.6 329.8 260.5Q330.1 261.3 330.1 262.5L330.1 262.5L330.1 263.1L323.4 263.1L323.4 261.9L328.8 261.9Q328.8 261.2 328.5 260.6Q328.2 260.0 327.6 259.7Q327.1 259.4 326.4 259.4L326.4 259.4Q325.6 259.4 325.0 259.8Q324.4 260.2 324.1 260.8Q323.8 261.4 323.8 262.1L323.8 262.1L323.8 262.9Q323.8 263.9 324.1 264.6Q324.5 265.3 325.1 265.6Q325.7 266.0 326.5 266.0L326.5 266.0Q327.0 266.0 327.5 265.8Q327.9 265.7 328.2 265.4Q328.5 265.1 328.7 264.6L328.7 264.6L330.0 265.0Q329.8 265.6 329.3 266.1Q328.8 266.6 328.1 266.9Q327.4 267.2 326.5 267.2ZM338.3 260.2L338.3 260.2L337.1 260.6Q337.0 260.3 336.8 260.0Q336.6 259.7 336.2 259.5Q335.8 259.3 335.3 259.3L335.3 259.3Q334.4 259.3 333.9 259.7Q333.4 260.1 333.4 260.6L333.4 260.6Q333.4 261.1 333.8 261.4Q334.1 261.7 334.9 261.9L334.9 261.9L336.2 262.2Q337.4 262.5 337.9 263.1Q338.5 263.7 338.5 264.6L338.5 264.6Q338.5 265.3 338.1 265.9Q337.6 266.5 336.9 266.8Q336.1 267.2 335.1 267.2L335.1 267.2Q333.8 267.2 332.9 266.6Q332.0 266.0 331.8 264.9L331.8 264.9L333.0 264.6Q333.2 265.3 333.7 265.6Q334.2 266 335.1 266L335.1 266Q336.0 266 336.6 265.6Q337.1 265.2 337.1 264.6L337.1 264.6Q337.1 264.2 336.8 263.9Q336.5 263.6 335.8 263.4L335.8 263.4L334.4 263.1Q333.2 262.8 332.6 262.2Q332.0 261.6 332.0 260.7L332.0 260.7Q332.0 259.9 332.5 259.4Q332.9 258.8 333.6 258.5Q334.3 258.2 335.3 258.2L335.3 258.2Q336.5 258.2 337.3 258.7Q338.0 259.3 338.3 260.2Z "/></g><mask id="satori_om-id-0-1-3-5"><rect x="348" y="251" width="6" height="19" fill="#fff" mask="url(#satori_om-id-0)"/></mask><g mask="url(#satori_om-id-0)" clip-path="url(#satori_cp-id-0)"><path fill="#9ca3af" d="M350.0 251.6L351.2 251.6L351.2 270.8L350.0 270.8L350.0 251.6Z "/></g><mask id="satori_om-id-0-1-3-6"><rect x="362" y="251" width="95" height="19" fill="#fff" mask="url(#satori_om-id-0)"/></mask><g mask="url(#satori_om-id-0)" clip-path="url(#satori_cp-id-0)"><path fill="#66a4de" d="M364.6 267L363.2 267L363.2 258.3L364.6 258.3L364.6 267ZM363.9 256.8L363.9 256.8Q363.5 256.8 363.2 256.6Q363.0 256.3 363.0 255.9L363.0 255.9Q363.0 255.5 363.2 255.3Q363.5 255 363.9 255L363.9 255Q364.3 255 364.6 255.3Q364.9 255.5 364.9 255.9L364.9 255.9Q364.9 256.3 364.6 256.6Q364.3 256.8 363.9 256.8ZM369.6 267.2L369.6 267.2Q368.8 267.2 368.1 266.9Q367.4 266.6 367.0 266.0Q366.6 265.4 366.6 264.5L366.6 264.5Q366.6 263.8 366.9 263.3Q367.2 262.8 367.7 262.6Q368.2 262.3 368.8 262.2Q369.4 262.0 370 262.0L370 262.0Q370.8 261.9 371.3 261.8Q371.8 261.7 372.0 261.6Q372.3 261.5 372.3 261.2L372.3 261.2L372.3 261.1Q372.3 260.3 371.8 259.8Q371.3 259.3 370.4 259.3L370.4 259.3Q369.4 259.3 368.9 259.8Q368.4 260.2 368.1 260.7L368.1 260.7L366.9 260.2Q367.2 259.4 367.8 259.0Q368.3 258.5 369.0 258.3Q369.7 258.2 370.4 258.2L370.4 258.2Q370.8 258.2 371.3 258.3Q371.9 258.4 372.4 258.7Q372.9 259.0 373.3 259.6Q373.6 260.2 373.6 261.3L373.6 261.3L373.6 267L372.3 267L372.3 265.8L372.2 265.8Q372.0 266.1 371.7 266.4Q371.4 266.8 370.9 267.0Q370.4 267.2 369.6 267.2ZM369.8 266L369.8 266Q370.6 266 371.1 265.7Q371.7 265.4 372.0 264.9Q372.3 264.4 372.3 263.8L372.3 263.8L372.3 262.6Q372.2 262.7 371.9 262.8Q371.6 262.9 371.2 262.9Q370.8 263 370.5 263.0Q370.1 263.1 369.9 263.1L369.9 263.1Q369.4 263.2 369.0 263.3Q368.5 263.5 368.2 263.8Q368.0 264.1 368.0 264.6L368.0 264.6Q368.0 265.3 368.5 265.6Q369.0 266 369.8 266ZM377.4 267L376.0 267L376.0 258.3L377.3 258.3L377.3 259.6L377.5 259.6Q377.7 258.9 378.3 258.5Q378.9 258.2 379.8 258.2L379.8 258.2Q380.7 258.2 381.2 258.5Q381.8 258.9 382.1 259.6L382.1 259.6L382.2 259.6Q382.6 259.0 383.2 258.6Q383.9 258.2 384.8 258.2L384.8 258.2Q386.0 258.2 386.8 258.9Q387.5 259.6 387.5 261.2L387.5 261.2L387.5 267L386.2 267L386.2 261.2Q386.2 260.2 385.6 259.8Q385.1 259.4 384.4 259.4L384.4 259.4Q383.5 259.4 383.0 259.9Q382.5 260.5 382.5 261.3L382.5 261.3L382.5 267L381.1 267L381.1 261.0Q381.1 260.3 380.6 259.8Q380.1 259.4 379.4 259.4L379.4 259.4Q378.8 259.4 378.4 259.6Q377.9 259.9 377.7 260.4Q377.4 260.9 377.4 261.5L377.4 261.5L377.4 267ZM389.9 261.4L395.0 261.4L395.0 262.6L389.9 262.6L389.9 261.4ZM403.5 260.2L403.5 260.2L402.3 260.6Q402.2 260.3 402.0 260.0Q401.7 259.7 401.4 259.5Q401.0 259.3 400.4 259.3L400.4 259.3Q399.6 259.3 399.1 259.7Q398.5 260.1 398.5 260.6L398.5 260.6Q398.5 261.1 398.9 261.4Q399.3 261.7 400.0 261.9L400.0 261.9L401.3 262.2Q402.5 262.5 403.1 263.1Q403.7 263.7 403.7 264.6L403.7 264.6Q403.7 265.3 403.2 265.9Q402.8 266.5 402.0 266.8Q401.3 267.2 400.3 267.2L400.3 267.2Q398.9 267.2 398.0 266.6Q397.2 266.0 396.9 264.9L396.9 264.9L398.2 264.6Q398.4 265.3 398.9 265.6Q399.4 266 400.2 266L400.2 266Q401.2 266 401.7 265.6Q402.3 265.2 402.3 264.6L402.3 264.6Q402.3 264.2 402.0 263.9Q401.6 263.6 401.0 263.4L401.0 263.4L399.5 263.1Q398.3 262.8 397.8 262.2Q397.2 261.6 397.2 260.7L397.2 260.7Q397.2 259.9 397.6 259.4Q398.0 258.8 398.8 258.5Q399.5 258.2 400.4 258.2L400.4 258.2Q401.7 258.2 402.4 258.7Q403.2 259.3 403.5 260.2ZM409.3 267.2L409.3 267.2Q408.1 267.2 407.2 266.6Q406.3 266.1 405.8 265.1Q405.3 264.0 405.3 262.7L405.3 262.7Q405.3 261.4 405.8 260.3Q406.3 259.3 407.1 258.7Q408.0 258.2 409.2 258.2L409.2 258.2Q409.9 258.2 410.6 258.4Q411.2 258.6 411.8 259.1Q412.3 259.6 412.6 260.5Q413.0 261.3 413.0 262.5L413.0 262.5L413.0 263.1L406.2 263.1L406.2 261.9L411.6 261.9Q411.6 261.2 411.3 260.6Q411.0 260.0 410.5 259.7Q409.9 259.4 409.2 259.4L409.2 259.4Q408.4 259.4 407.8 259.8Q407.2 260.2 406.9 260.8Q406.6 261.4 406.6 262.1L406.6 262.1L406.6 262.9Q406.6 263.9 407.0 264.6Q407.3 265.3 407.9 265.6Q408.5 266.0 409.3 266.0L409.3 266.0Q409.9 266.0 410.3 265.8Q410.7 265.7 411.0 265.4Q411.4 265.1 411.5 264.6L411.5 264.6L412.8 265.0Q412.6 265.6 412.1 266.1Q411.6 266.6 410.9 266.9Q410.2 267.2 409.3 267.2ZM418.5 267.2L418.5 267.2Q417.3 267.2 416.4 266.6Q415.5 266.0 415.1 265.0Q414.6 264.0 414.6 262.7L414.6 262.7Q414.6 261.4 415.1 260.3Q415.6 259.3 416.5 258.7Q417.3 258.2 418.5 258.2L418.5 258.2Q419.4 258.2 420.2 258.5Q420.9 258.8 421.4 259.5Q421.9 260.1 422.0 260.9L422.0 260.9L420.6 260.9Q420.5 260.3 420.0 259.8Q419.4 259.4 418.5 259.4L418.5 259.4Q417.8 259.4 417.2 259.8Q416.6 260.2 416.3 260.9Q415.9 261.6 415.9 262.6L415.9 262.6Q415.9 263.6 416.3 264.4Q416.6 265.1 417.2 265.6Q417.8 266.0 418.5 266.0L418.5 266.0Q419.1 266.0 419.5 265.8Q419.9 265.6 420.2 265.3Q420.5 264.9 420.6 264.5L420.6 264.5L422.0 264.5Q421.9 265.2 421.4 265.8Q421.0 266.5 420.2 266.8Q419.5 267.2 418.5 267.2ZM429.4 263.4L429.4 263.4L429.4 258.3L430.8 258.3L430.8 267L429.4 267L429.4 265.5L429.3 265.5Q429.0 266.2 428.4 266.7Q427.7 267.1 426.8 267.1L426.8 267.1Q425.9 267.1 425.3 266.8Q424.7 266.4 424.3 265.7Q423.9 264.9 423.9 263.8L423.9 263.8L423.9 258.3L425.3 258.3L425.3 263.7Q425.3 264.7 425.8 265.3Q426.3 265.8 427.2 265.8L427.2 265.8Q427.7 265.8 428.2 265.6Q428.7 265.3 429.1 264.8Q429.4 264.3 429.4 263.4ZM434.6 267L433.2 267L433.2 258.3L434.5 258.3L434.5 259.6L434.6 259.6Q434.9 258.9 435.5 258.5Q436.1 258.1 436.9 258.1L436.9 258.1Q437.0 258.1 437.3 258.1Q437.5 258.1 437.6 258.2L437.6 258.2L437.6 259.5Q437.5 259.5 437.3 259.5Q437.0 259.4 436.8 259.4L436.8 259.4Q436.1 259.4 435.6 259.7Q435.1 260.0 434.9 260.4Q434.6 260.9 434.6 261.5L434.6 261.5L434.6 267ZM440.5 267L439.2 267L439.2 258.3L440.5 258.3L440.5 267ZM439.9 256.8L439.9 256.8Q439.5 256.8 439.2 256.6Q438.9 256.3 438.9 255.9L438.9 255.9Q438.9 255.5 439.2 255.3Q439.5 255 439.9 255L439.9 255Q440.3 255 440.5 255.3Q440.8 255.5 440.8 255.9L440.8 255.9Q440.8 256.3 440.5 256.6Q440.3 256.8 439.9 256.8ZM442.3 258.3L446.8 258.3L446.8 259.4L442.3 259.4L442.3 258.3ZM443.6 264.9L443.6 256.2L444.9 256.2L444.9 264.5Q444.9 265.1 445.1 265.3Q445.2 265.6 445.5 265.7Q445.8 265.8 446.1 265.8L446.1 265.8Q446.3 265.8 446.4 265.8Q446.6 265.8 446.7 265.8L446.7 265.8L446.9 267.0Q446.8 267.0 446.6 267.1Q446.3 267.1 445.9 267.1L445.9 267.1Q445.4 267.1 444.8 266.9Q444.3 266.6 443.9 266.1Q443.6 265.6 443.6 264.9L443.6 264.9ZM449.7 270.3L449.7 270.3Q449.3 270.3 449.1 270.2Q448.8 270.2 448.7 270.1L448.7 270.1L449.0 268.9Q449.5 269.1 449.9 269.0Q450.3 269.0 450.6 268.7Q450.8 268.4 451.1 267.7L451.1 267.7L451.3 267.0L448.1 258.3L449.6 258.3L452.0 265.2L452.1 265.2L454.5 258.3L455.9 258.3L452.2 268.3Q452.0 268.9 451.6 269.4Q451.2 269.8 450.8 270.1Q450.3 270.3 449.7 270.3Z "/></g><mask id="satori_om-id-0-1-3-7"><rect x="465" y="251" width="6" height="19" fill="#fff" mask="url(#satori_om-id-0)"/></mask><g mask="url(#satori_om-id-0)" clip-path="url(#satori_cp-id-0)"><path fill="#9ca3af" d="M467.0 251.6L468.2 251.6L468.2 270.8L467.0 270.8L467.0 251.6Z "/></g><mask id="satori_om-id-0-1-3-8"><rect x="479" y="251" width="70" height="19" fill="#fff" mask="url(#satori_om-id-0)"/></mask><g mask="url(#satori_om-id-0)" clip-path="url(#satori_cp-id-0)"><path fill="#66a4de" d="M483.8 267.2L483.8 267.2Q482.6 267.2 481.7 266.6Q480.8 266.1 480.3 265.0Q479.8 264.0 479.8 262.7L479.8 262.7Q479.8 261.3 480.3 260.3Q480.8 259.3 481.7 258.7Q482.6 258.2 483.8 258.2L483.8 258.2Q485.0 258.2 485.8 258.7Q486.7 259.3 487.2 260.3Q487.7 261.3 487.7 262.7L487.7 262.7Q487.7 264.0 487.2 265.0Q486.7 266.1 485.8 266.6Q485.0 267.2 483.8 267.2ZM483.8 266.0L483.8 266.0Q484.7 266.0 485.3 265.5Q485.8 265.1 486.1 264.3Q486.4 263.6 486.4 262.7L486.4 262.7Q486.4 261.8 486.1 261.1Q485.8 260.3 485.3 259.8Q484.7 259.4 483.8 259.4L483.8 259.4Q482.9 259.4 482.3 259.8Q481.7 260.3 481.4 261.1Q481.2 261.8 481.2 262.7L481.2 262.7Q481.2 263.6 481.4 264.3Q481.7 265.1 482.3 265.5Q482.9 266.0 483.8 266.0ZM492.3 267.2L492.3 267.2Q491.5 267.2 490.8 266.9Q490.2 266.6 489.8 266.0Q489.4 265.4 489.4 264.5L489.4 264.5Q489.4 263.8 489.7 263.3Q490.0 262.8 490.4 262.6Q490.9 262.3 491.5 262.2Q492.1 262.0 492.8 262.0L492.8 262.0Q493.5 261.9 494.0 261.8Q494.5 261.7 494.8 261.6Q495 261.5 495 261.2L495 261.2L495 261.1Q495 260.3 494.5 259.8Q494.1 259.3 493.2 259.3L493.2 259.3Q492.2 259.3 491.7 259.8Q491.1 260.2 490.9 260.7L490.9 260.7L489.6 260.2Q490.0 259.4 490.5 259.0Q491.1 258.5 491.8 258.3Q492.5 258.2 493.1 258.2L493.1 258.2Q493.5 258.2 494.1 258.3Q494.6 258.4 495.1 258.7Q495.7 259.0 496 259.6Q496.3 260.2 496.3 261.3L496.3 261.3L496.3 267L495 267L495 265.8L494.9 265.8Q494.8 266.1 494.5 266.4Q494.2 266.8 493.6 267.0Q493.1 267.2 492.3 267.2ZM492.5 266L492.5 266Q493.3 266 493.9 265.7Q494.4 265.4 494.7 264.9Q495 264.4 495 263.8L495 263.8L495 262.6Q494.9 262.7 494.6 262.8Q494.3 262.9 494.0 262.9Q493.6 263 493.2 263.0Q492.9 263.1 492.7 263.1L492.7 263.1Q492.2 263.2 491.7 263.3Q491.3 263.5 491.0 263.8Q490.7 264.1 490.7 264.6L490.7 264.6Q490.7 265.3 491.2 265.6Q491.7 266 492.5 266ZM504.3 263.4L504.3 263.4L504.3 258.3L505.6 258.3L505.6 267L504.3 267L504.3 265.5L504.2 265.5Q503.9 266.2 503.3 266.7Q502.6 267.1 501.6 267.1L501.6 267.1Q500.8 267.1 500.2 266.8Q499.5 266.4 499.2 265.7Q498.8 264.9 498.8 263.8L498.8 263.8L498.8 258.3L500.1 258.3L500.1 263.7Q500.1 264.7 500.7 265.3Q501.2 265.8 502.0 265.8L502.0 265.8Q502.5 265.8 503.1 265.6Q503.6 265.3 503.9 264.8Q504.3 264.3 504.3 263.4ZM507.4 258.3L511.9 258.3L511.9 259.4L507.4 259.4L507.4 258.3ZM508.7 264.9L508.7 256.2L510.0 256.2L510.0 264.5Q510.0 265.1 510.2 265.3Q510.4 265.6 510.6 265.7Q510.9 265.8 511.2 265.8L511.2 265.8Q511.4 265.8 511.5 265.8Q511.7 265.8 511.8 265.8L511.8 265.8L512.0 267.0Q511.9 267.0 511.7 267.1Q511.4 267.1 511.0 267.1L511.0 267.1Q510.5 267.1 509.9 266.9Q509.4 266.6 509.0 266.1Q508.7 265.6 508.7 264.9L508.7 264.9ZM515.4 261.8L515.4 261.8L515.4 267L514.1 267L514.1 255.4L515.4 255.4L515.4 259.6L515.5 259.6Q515.9 259.0 516.5 258.6Q517.1 258.2 518.1 258.2L518.1 258.2Q519.0 258.2 519.7 258.5Q520.3 258.9 520.7 259.6Q521.1 260.3 521.1 261.5L521.1 261.5L521.1 267L519.8 267L519.8 261.5Q519.8 260.5 519.2 259.9Q518.7 259.4 517.7 259.4L517.7 259.4Q517.1 259.4 516.5 259.6Q516.0 259.9 515.7 260.5Q515.4 261.0 515.4 261.8Z M535.2 267L527.8 267L527.8 266.0L531.7 261.8Q532.4 261.0 532.8 260.5Q533.2 259.9 533.4 259.5Q533.7 259.0 533.7 258.4L533.7 258.4Q533.7 257.8 533.4 257.4Q533.1 256.9 532.6 256.7Q532.1 256.4 531.4 256.4L531.4 256.4Q530.8 256.4 530.3 256.7Q529.8 257.0 529.5 257.5Q529.2 258.0 529.2 258.6L529.2 258.6L527.9 258.6Q527.9 257.6 528.4 256.8Q528.8 256.1 529.6 255.6Q530.5 255.2 531.5 255.2L531.5 255.2Q532.5 255.2 533.3 255.6Q534.1 256.1 534.5 256.8Q535.0 257.5 535.0 258.4L535.0 258.4Q535.0 259.1 534.7 259.7Q534.5 260.3 534.0 261.0Q533.4 261.8 532.4 262.9L532.4 262.9L529.8 265.7L529.8 265.8L535.2 265.8L535.2 267ZM538.5 267.1L538.5 267.1Q538.1 267.1 537.8 266.8Q537.5 266.5 537.5 266.1L537.5 266.1Q537.5 265.6 537.8 265.3Q538.1 265.0 538.5 265.0L538.5 265.0Q538.9 265.0 539.2 265.3Q539.5 265.6 539.5 266.1L539.5 266.1Q539.5 266.3 539.4 266.6Q539.3 266.8 539.0 267.0Q538.8 267.1 538.5 267.1ZM543.2 255.4L544.6 255.4L544.6 267L543.2 267L543.2 256.8L543.2 256.8L540.3 258.7L540.3 257.3L543.2 255.4Z "/></g><mask id="satori_om-id-0-1-4"><rect x="81" y="302" width="638" height="17" fill="#fff" mask="url(#satori_om-id-0)"/></mask><mask id="satori_om-id-0-1-4-0"><rect x="81" y="302" width="195" height="17" fill="#fff" mask="url(#satori_om-id-0)"/></mask><g mask="url(#satori_om-id-0)" clip-path="url(#satori_cp-id-0)"><path fill="#6b7280" d="M84.3 316.2L84.3 316.2Q83.6 316.2 83.0 315.9Q82.4 315.6 82.1 315.1Q81.7 314.6 81.7 313.8L81.7 313.8Q81.7 313.2 82.0 312.8Q82.2 312.4 82.7 312.1Q83.1 311.9 83.6 311.8Q84.1 311.7 84.7 311.6L84.7 311.6Q85.4 311.5 85.8 311.4Q86.2 311.4 86.4 311.3Q86.6 311.2 86.6 310.9L86.6 310.9L86.6 310.8Q86.6 310.1 86.2 309.7Q85.8 309.3 85.0 309.3L85.0 309.3Q84.2 309.3 83.7 309.7Q83.2 310.0 83.0 310.5L83.0 310.5L81.9 310.1Q82.2 309.4 82.7 309.0Q83.2 308.6 83.8 308.4Q84.4 308.3 85.0 308.3L85.0 308.3Q85.4 308.3 85.8 308.4Q86.3 308.4 86.8 308.7Q87.2 309.0 87.5 309.5Q87.8 310.1 87.8 311.0L87.8 311.0L87.8 316L86.6 316L86.6 315.0L86.6 315.0Q86.5 315.2 86.2 315.5Q85.9 315.8 85.4 316.0Q85.0 316.2 84.3 316.2ZM84.5 315.1L84.5 315.1Q85.2 315.1 85.7 314.9Q86.2 314.6 86.4 314.1Q86.6 313.7 86.6 313.2L86.6 313.2L86.6 312.2Q86.6 312.3 86.3 312.3Q86.1 312.4 85.7 312.4Q85.4 312.5 85.1 312.5Q84.8 312.6 84.6 312.6L84.6 312.6Q84.2 312.7 83.8 312.8Q83.4 312.9 83.1 313.2Q82.9 313.4 82.9 313.9L82.9 313.9Q82.9 314.5 83.3 314.8Q83.8 315.1 84.5 315.1ZM92.4 312.0L91.1 313.2L91.0 311.8L91.3 311.8L94.6 308.4L96.1 308.4L92.5 312.0L92.4 312.0ZM91.1 316L90.0 316L90.0 305.8L91.1 305.8L91.1 316ZM96.3 316L94.8 316L91.8 312.2L92.7 311.4L96.3 316ZM103.0 310.1L103.0 310.1L101.9 310.4Q101.8 310.1 101.6 309.9Q101.5 309.6 101.1 309.4Q100.8 309.3 100.3 309.3L100.3 309.3Q99.6 309.3 99.1 309.6Q98.7 309.9 98.7 310.4L98.7 310.4Q98.7 310.8 99.0 311.1Q99.3 311.4 100.0 311.5L100.0 311.5L101.1 311.8Q102.1 312.1 102.6 312.6Q103.1 313.1 103.1 313.9L103.1 313.9Q103.1 314.5 102.8 315.0Q102.4 315.6 101.7 315.9Q101.0 316.2 100.2 316.2L100.2 316.2Q99.0 316.2 98.2 315.7Q97.5 315.1 97.2 314.2L97.2 314.2L98.4 313.9Q98.5 314.5 99.0 314.8Q99.4 315.1 100.1 315.1L100.1 315.1Q101.0 315.1 101.4 314.8Q101.9 314.4 101.9 313.9L101.9 313.9Q101.9 313.5 101.6 313.3Q101.4 313.0 100.8 312.9L100.8 312.9L99.5 312.6Q98.5 312.3 98.0 311.8Q97.5 311.3 97.5 310.5L97.5 310.5Q97.5 309.8 97.9 309.3Q98.2 308.8 98.9 308.5Q99.5 308.3 100.3 308.3L100.3 308.3Q101.4 308.3 102.1 308.8Q102.7 309.3 103.0 310.1ZM106.1 311.4L106.1 311.4L106.1 316L104.9 316L104.9 305.8L106.1 305.8L106.1 309.6L106.2 309.6Q106.4 309.0 107.0 308.6Q107.5 308.3 108.4 308.3L108.4 308.3Q109.2 308.3 109.8 308.6Q110.4 308.9 110.7 309.5Q111.0 310.2 111.0 311.1L111.0 311.1L111.0 316L109.9 316L109.9 311.2Q109.9 310.3 109.4 309.8Q108.9 309.3 108.1 309.3L108.1 309.3Q107.5 309.3 107.1 309.6Q106.6 309.8 106.3 310.3Q106.1 310.7 106.1 311.4ZM115.4 316.2L115.4 316.2Q114.7 316.2 114.1 315.9Q113.5 315.6 113.2 315.1Q112.8 314.6 112.8 313.8L112.8 313.8Q112.8 313.2 113.1 312.8Q113.3 312.4 113.8 312.1Q114.2 311.9 114.7 311.8Q115.2 311.7 115.8 311.6L115.8 311.6Q116.5 311.5 116.9 311.4Q117.3 311.4 117.5 311.3Q117.7 311.2 117.7 310.9L117.7 310.9L117.7 310.8Q117.7 310.1 117.3 309.7Q116.9 309.3 116.1 309.3L116.1 309.3Q115.3 309.3 114.8 309.7Q114.3 310.0 114.2 310.5L114.2 310.5L113.0 310.1Q113.3 309.4 113.8 309.0Q114.3 308.6 114.9 308.4Q115.5 308.3 116.1 308.3L116.1 308.3Q116.5 308.3 116.9 308.4Q117.4 308.4 117.9 308.7Q118.3 309.0 118.6 309.5Q118.9 310.1 118.9 311.0L118.9 311.0L118.9 316L117.7 316L117.7 315.0L117.7 315.0Q117.6 315.2 117.3 315.5Q117.0 315.8 116.6 316.0Q116.1 316.2 115.4 316.2ZM115.6 315.1L115.6 315.1Q116.3 315.1 116.8 314.9Q117.3 314.6 117.5 314.1Q117.7 313.7 117.7 313.2L117.7 313.2L117.7 312.2Q117.7 312.3 117.4 312.3Q117.2 312.4 116.8 312.4Q116.5 312.5 116.2 312.5Q115.9 312.6 115.7 312.6L115.7 312.6Q115.3 312.7 114.9 312.8Q114.5 312.9 114.2 313.2Q114.0 313.4 114.0 313.9L114.0 313.9Q114.0 314.5 114.4 314.8Q114.9 315.1 115.6 315.1ZM121.5 318.9L121.5 318.9Q121.2 318.9 121.0 318.8Q120.8 318.8 120.7 318.7L120.7 318.7L121.0 317.7Q121.4 317.8 121.7 317.8Q122.1 317.7 122.3 317.5Q122.6 317.2 122.8 316.6L122.8 316.6L123.0 316.0L120.2 308.4L121.5 308.4L123.6 314.4L123.7 314.4L125.8 308.4L127.0 308.4L123.8 317.1Q123.6 317.7 123.3 318.1Q122.9 318.5 122.5 318.7Q122.1 318.9 121.5 318.9ZM131.2 316.2L131.2 316.2Q130.2 316.2 129.5 315.7Q128.8 315.2 128.4 314.3Q128.0 313.4 128.0 312.2L128.0 312.2Q128.0 311.0 128.4 310.1Q128.8 309.2 129.5 308.7Q130.2 308.3 131.2 308.3L131.2 308.3Q132.0 308.3 132.4 308.5Q132.8 308.8 133.1 309.1Q133.3 309.4 133.4 309.6L133.4 309.6L133.5 309.6L133.5 305.8L134.7 305.8L134.7 316L133.6 316L133.6 314.8L133.4 314.8Q133.3 315.0 133.1 315.4Q132.8 315.7 132.4 315.9Q131.9 316.2 131.2 316.2ZM131.4 315.1L131.4 315.1Q132.1 315.1 132.5 314.7Q133.0 314.4 133.3 313.7Q133.5 313.0 133.5 312.2L133.5 312.2Q133.5 311.3 133.3 310.7Q133.0 310.0 132.6 309.7Q132.1 309.3 131.4 309.3L131.4 309.3Q130.6 309.3 130.1 309.7Q129.6 310.1 129.4 310.7Q129.1 311.4 129.1 312.2L129.1 312.2Q129.1 313.0 129.4 313.7Q129.6 314.3 130.1 314.7Q130.6 315.1 131.4 315.1ZM139.9 316L138.7 316L136.4 308.4L137.6 308.4L139.3 314.2L139.4 314.2L141.0 308.4L142.2 308.4L143.9 314.2L143.9 314.2L145.6 308.4L146.8 308.4L144.5 316L143.3 316L141.7 310.1L141.6 310.1L139.9 316ZM150.6 316.2L150.6 316.2Q149.9 316.2 149.3 315.9Q148.7 315.6 148.4 315.1Q148.0 314.6 148.0 313.8L148.0 313.8Q148.0 313.2 148.3 312.8Q148.5 312.4 149.0 312.1Q149.4 311.9 149.9 311.8Q150.4 311.7 151.0 311.6L151.0 311.6Q151.7 311.5 152.1 311.4Q152.5 311.4 152.7 311.3Q152.9 311.2 152.9 310.9L152.9 310.9L152.9 310.8Q152.9 310.1 152.5 309.7Q152.1 309.3 151.3 309.3L151.3 309.3Q150.5 309.3 150.0 309.7Q149.5 310.0 149.3 310.5L149.3 310.5L148.2 310.1Q148.5 309.4 149.0 309.0Q149.5 308.6 150.1 308.4Q150.7 308.3 151.3 308.3L151.3 308.3Q151.7 308.3 152.1 308.4Q152.6 308.4 153.1 308.7Q153.5 309.0 153.8 309.5Q154.1 310.1 154.1 311.0L154.1 311.0L154.1 316L152.9 316L152.9 315.0L152.9 315.0Q152.8 315.2 152.5 315.5Q152.2 315.8 151.8 316.0Q151.3 316.2 150.6 316.2ZM150.8 315.1L150.8 315.1Q151.5 315.1 152.0 314.9Q152.5 314.6 152.7 314.1Q152.9 313.7 152.9 313.2L152.9 313.2L152.9 312.2Q152.9 312.3 152.6 312.3Q152.4 312.4 152.0 312.4Q151.7 312.5 151.4 312.5Q151.1 312.6 150.9 312.6L150.9 312.6Q150.5 312.7 150.1 312.8Q149.7 312.9 149.4 313.2Q149.2 313.4 149.2 313.9L149.2 313.9Q149.2 314.5 149.6 314.8Q150.1 315.1 150.8 315.1ZM157.4 316L156.3 316L156.3 308.4L157.4 308.4L157.4 309.5L157.5 309.5Q157.7 309.0 158.2 308.6Q158.8 308.2 159.5 308.2L159.5 308.2Q159.6 308.2 159.8 308.2Q160.0 308.3 160.1 308.3L160.1 308.3L160.1 309.5Q160.0 309.4 159.8 309.4Q159.6 309.4 159.4 309.4L159.4 309.4Q158.8 309.4 158.4 309.6Q157.9 309.8 157.7 310.2Q157.4 310.7 157.4 311.2L157.4 311.2L157.4 316ZM163.7 316.2L163.7 316.2Q163.0 316.2 162.4 315.9Q161.8 315.6 161.5 315.1Q161.1 314.6 161.1 313.8L161.1 313.8Q161.1 313.2 161.4 312.8Q161.6 312.4 162.1 312.1Q162.5 311.9 163.0 311.8Q163.6 311.7 164.1 311.6L164.1 311.6Q164.8 311.5 165.2 311.4Q165.7 311.4 165.9 311.3Q166.1 311.2 166.1 310.9L166.1 310.9L166.1 310.8Q166.1 310.1 165.7 309.7Q165.3 309.3 164.4 309.3L164.4 309.3Q163.6 309.3 163.1 309.7Q162.6 310.0 162.5 310.5L162.5 310.5L161.3 310.1Q161.6 309.4 162.1 309.0Q162.6 308.6 163.2 308.4Q163.8 308.3 164.4 308.3L164.4 308.3Q164.8 308.3 165.3 308.4Q165.7 308.4 166.2 308.7Q166.6 309.0 166.9 309.5Q167.2 310.1 167.2 311.0L167.2 311.0L167.2 316L166.1 316L166.1 315.0L166.0 315.0Q165.9 315.2 165.6 315.5Q165.3 315.8 164.9 316.0Q164.4 316.2 163.7 316.2ZM163.9 315.1L163.9 315.1Q164.6 315.1 165.1 314.9Q165.6 314.6 165.8 314.1Q166.1 313.7 166.1 313.2L166.1 313.2L166.1 312.2Q166.0 312.3 165.7 312.3Q165.5 312.4 165.2 312.4Q164.8 312.5 164.5 312.5Q164.2 312.6 164.0 312.6L164.0 312.6Q163.6 312.7 163.2 312.8Q162.8 312.9 162.5 313.2Q162.3 313.4 162.3 313.9L162.3 313.9Q162.3 314.5 162.8 314.8Q163.2 315.1 163.9 315.1ZM171.8 312.0L170.5 313.2L170.4 311.8L170.7 311.8L174.0 308.4L175.5 308.4L171.9 312.0L171.8 312.0ZM170.5 316L169.4 316L169.4 305.8L170.5 305.8L170.5 316ZM175.7 316L174.2 316L171.2 312.2L172.1 311.4L175.7 316ZM179.2 316.2L179.2 316.2Q178.5 316.2 177.9 315.9Q177.3 315.6 177.0 315.1Q176.6 314.6 176.6 313.8L176.6 313.8Q176.6 313.2 176.9 312.8Q177.2 312.4 177.6 312.1Q178.0 311.9 178.5 311.8Q179.1 311.7 179.6 311.6L179.6 311.6Q180.3 311.5 180.7 311.4Q181.2 311.4 181.4 311.3Q181.6 311.2 181.6 310.9L181.6 310.9L181.6 310.8Q181.6 310.1 181.2 309.7Q180.8 309.3 180.0 309.3L180.0 309.3Q179.1 309.3 178.6 309.7Q178.2 310.0 178.0 310.5L178.0 310.5L176.9 310.1Q177.2 309.4 177.7 309.0Q178.1 308.6 178.7 308.4Q179.3 308.3 179.9 308.3L179.9 308.3Q180.3 308.3 180.8 308.4Q181.2 308.4 181.7 308.7Q182.1 309.0 182.4 309.5Q182.7 310.1 182.7 311.0L182.7 311.0L182.7 316L181.6 316L181.6 315.0L181.5 315.0Q181.4 315.2 181.1 315.5Q180.8 315.8 180.4 316.0Q179.9 316.2 179.2 316.2ZM179.4 315.1L179.4 315.1Q180.1 315.1 180.6 314.9Q181.1 314.6 181.3 314.1Q181.6 313.7 181.6 313.2L181.6 313.2L181.6 312.2Q181.5 312.3 181.2 312.3Q181.0 312.4 180.7 312.4Q180.3 312.5 180.0 312.5Q179.7 312.6 179.5 312.6L179.5 312.6Q179.1 312.7 178.7 312.8Q178.3 312.9 178.0 313.2Q177.8 313.4 177.8 313.9L177.8 313.9Q177.8 314.5 178.3 314.8Q178.7 315.1 179.4 315.1ZM186.1 311.4L186.1 311.4L186.1 316L184.9 316L184.9 308.4L186.0 308.4L186.0 309.6L186.1 309.6Q186.4 309.0 186.9 308.6Q187.5 308.3 188.3 308.3L188.3 308.3Q189.1 308.3 189.7 308.6Q190.3 308.9 190.6 309.5Q190.9 310.2 190.9 311.1L190.9 311.1L190.9 316L189.8 316L189.8 311.2Q189.8 310.3 189.3 309.8Q188.8 309.3 188.0 309.3L188.0 309.3Q187.4 309.3 187.0 309.6Q186.6 309.8 186.3 310.3Q186.1 310.7 186.1 311.4ZM195.3 316.2L195.3 316.2Q194.6 316.2 194.0 315.9Q193.4 315.6 193.1 315.1Q192.7 314.6 192.7 313.8L192.7 313.8Q192.7 313.2 193.0 312.8Q193.2 312.4 193.7 312.1Q194.1 311.9 194.6 311.8Q195.2 311.7 195.7 311.6L195.7 311.6Q196.4 311.5 196.8 311.4Q197.3 311.4 197.5 311.3Q197.7 311.2 197.7 310.9L197.7 310.9L197.7 310.8Q197.7 310.1 197.3 309.7Q196.9 309.3 196.0 309.3L196.0 309.3Q195.2 309.3 194.7 309.7Q194.2 310.0 194.1 310.5L194.1 310.5L192.9 310.1Q193.2 309.4 193.7 309.0Q194.2 308.6 194.8 308.4Q195.4 308.3 196.0 308.3L196.0 308.3Q196.4 308.3 196.9 308.4Q197.3 308.4 197.8 308.7Q198.2 309.0 198.5 309.5Q198.8 310.1 198.8 311.0L198.8 311.0L198.8 316L197.7 316L197.7 315.0L197.6 315.0Q197.5 315.2 197.2 315.5Q196.9 315.8 196.5 316.0Q196.0 316.2 195.3 316.2ZM195.5 315.1L195.5 315.1Q196.2 315.1 196.7 314.9Q197.2 314.6 197.4 314.1Q197.7 313.7 197.7 313.2L197.7 313.2L197.7 312.2Q197.6 312.3 197.3 312.3Q197.1 312.4 196.8 312.4Q196.4 312.5 196.1 312.5Q195.8 312.6 195.6 312.6L195.6 312.6Q195.2 312.7 194.8 312.8Q194.4 312.9 194.1 313.2Q193.9 313.4 193.9 313.9L193.9 313.9Q193.9 314.5 194.3 314.8Q194.8 315.1 195.5 315.1ZM200.3 308.4L204.3 308.4L204.3 309.4L200.3 309.4L200.3 308.4ZM201.5 314.1L201.5 306.5L202.7 306.5L202.7 313.8Q202.7 314.3 202.8 314.6Q203.0 314.8 203.2 314.9Q203.4 315.0 203.7 315.0L203.7 315.0Q203.9 315.0 204.0 314.9Q204.1 314.9 204.2 314.9L204.2 314.9L204.4 316.0Q204.3 316.0 204.1 316.1Q203.9 316.1 203.6 316.1L203.6 316.1Q203.1 316.1 202.6 315.9Q202.1 315.7 201.8 315.2Q201.5 314.8 201.5 314.1L201.5 314.1ZM207.4 311.4L207.4 311.4L207.4 316L206.2 316L206.2 305.8L207.4 305.8L207.4 309.6L207.5 309.6Q207.8 309.0 208.3 308.6Q208.8 308.3 209.7 308.3L209.7 308.3Q210.5 308.3 211.1 308.6Q211.7 308.9 212.0 309.5Q212.3 310.2 212.3 311.1L212.3 311.1L212.3 316L211.2 316L211.2 311.2Q211.2 310.3 210.7 309.8Q210.2 309.3 209.4 309.3L209.4 309.3Q208.8 309.3 208.4 309.6Q207.9 309.8 207.7 310.3Q207.4 310.7 207.4 311.4ZM215.4 316.1L215.4 316.1Q215.0 316.1 214.7 315.8Q214.5 315.6 214.5 315.2L214.5 315.2Q214.5 314.8 214.7 314.6Q215.0 314.3 215.4 314.3L215.4 314.3Q215.7 314.3 216.0 314.6Q216.2 314.8 216.2 315.2L216.2 315.2Q216.2 315.4 216.1 315.6Q216.0 315.8 215.8 316.0Q215.6 316.1 215.4 316.1ZM221.4 319.0L221.4 319.0Q220.6 319.0 220.0 318.8Q219.4 318.6 219.0 318.2Q218.6 317.9 218.3 317.5L218.3 317.5L219.3 316.8Q219.4 317.0 219.7 317.3Q219.9 317.6 220.3 317.8Q220.7 318.0 221.4 318.0L221.4 318.0Q222.4 318.0 223.0 317.5Q223.6 317.1 223.6 316.1L223.6 316.1L223.6 314.6L223.5 314.6Q223.3 314.8 223.1 315.1Q222.9 315.4 222.4 315.6Q222.0 315.9 221.2 315.9L221.2 315.9Q220.3 315.9 219.6 315.4Q218.8 315.0 218.4 314.2Q218.0 313.3 218.0 312.1L218.0 312.1Q218.0 311.0 218.4 310.1Q218.8 309.2 219.6 308.7Q220.3 308.3 221.3 308.3L221.3 308.3Q222.0 308.3 222.4 308.5Q222.9 308.8 223.1 309.1Q223.4 309.4 223.5 309.6L223.5 309.6L223.6 309.6L223.6 308.4L224.7 308.4L224.7 316.2Q224.7 317.2 224.3 317.8Q223.8 318.4 223.1 318.7Q222.4 319.0 221.4 319.0ZM221.4 314.8L221.4 314.8Q222.1 314.8 222.6 314.5Q223.1 314.2 223.3 313.6Q223.6 313.0 223.6 312.1L223.6 312.1Q223.6 311.3 223.3 310.7Q223.1 310.0 222.6 309.7Q222.1 309.3 221.4 309.3L221.4 309.3Q220.7 309.3 220.2 309.7Q219.7 310.1 219.4 310.7Q219.2 311.3 219.2 312.1L219.2 312.1Q219.2 312.9 219.4 313.5Q219.7 314.1 220.2 314.5Q220.7 314.8 221.4 314.8ZM228.1 316L226.9 316L226.9 308.4L228.1 308.4L228.1 316ZM227.5 307.1L227.5 307.1Q227.1 307.1 226.9 306.9Q226.6 306.6 226.6 306.3L226.6 306.3Q226.6 306.0 226.9 305.7Q227.1 305.5 227.5 305.5L227.5 305.5Q227.8 305.5 228.1 305.7Q228.3 306.0 228.3 306.3L228.3 306.3Q228.3 306.6 228.1 306.9Q227.8 307.1 227.5 307.1ZM229.6 308.4L233.5 308.4L233.5 309.4L229.6 309.4L229.6 308.4ZM230.7 314.1L230.7 306.5L231.9 306.5L231.9 313.8Q231.9 314.3 232.0 314.6Q232.2 314.8 232.4 314.9Q232.7 315.0 232.9 315.0L232.9 315.0Q233.1 315.0 233.2 314.9Q233.4 314.9 233.4 314.9L233.4 314.9L233.7 316.0Q233.5 316.0 233.3 316.1Q233.1 316.1 232.8 316.1L232.8 316.1Q232.3 316.1 231.8 315.9Q231.3 315.7 231.0 315.2Q230.7 314.8 230.7 314.1L230.7 314.1ZM236.6 311.4L236.6 311.4L236.6 316L235.5 316L235.5 305.8L236.6 305.8L236.6 309.6L236.7 309.6Q237.0 309.0 237.5 308.6Q238.1 308.3 239.0 308.3L239.0 308.3Q239.8 308.3 240.3 308.6Q240.9 308.9 241.3 309.5Q241.6 310.2 241.6 311.1L241.6 311.1L241.6 316L240.4 316L240.4 311.2Q240.4 310.3 239.9 309.8Q239.5 309.3 238.6 309.3L238.6 309.3Q238.1 309.3 237.6 309.6Q237.2 309.8 236.9 310.3Q236.6 310.7 236.6 311.4ZM248.5 312.9L248.5 312.9L248.5 308.4L249.7 308.4L249.7 316L248.5 316L248.5 314.7L248.5 314.7Q248.2 315.3 247.6 315.7Q247.1 316.1 246.2 316.1L246.2 316.1Q245.5 316.1 244.9 315.8Q244.4 315.5 244.0 314.8Q243.7 314.2 243.7 313.2L243.7 313.2L243.7 308.4L244.9 308.4L244.9 313.1Q244.9 314.0 245.4 314.5Q245.8 315.0 246.6 315.0L246.6 315.0Q247.0 315.0 247.5 314.7Q247.9 314.5 248.2 314.1Q248.5 313.6 248.5 312.9ZM253.2 316L252.0 316L252.0 305.8L253.2 305.8L253.2 309.6L253.3 309.6Q253.4 309.4 253.7 309.1Q253.9 308.8 254.3 308.5Q254.8 308.3 255.5 308.3L255.5 308.3Q256.5 308.3 257.2 308.7Q257.9 309.2 258.4 310.1Q258.8 311.0 258.8 312.2L258.8 312.2Q258.8 313.4 258.4 314.3Q257.9 315.2 257.2 315.7Q256.5 316.2 255.5 316.2L255.5 316.2Q254.8 316.2 254.3 315.9Q253.9 315.7 253.7 315.4Q253.4 315.0 253.3 314.8L253.3 314.8L253.2 314.8L253.2 316ZM253.2 312.2L253.2 312.2Q253.2 313.0 253.4 313.7Q253.7 314.4 254.2 314.7Q254.7 315.1 255.4 315.1L255.4 315.1Q256.1 315.1 256.6 314.7Q257.1 314.3 257.3 313.7Q257.6 313.0 257.6 312.2L257.6 312.2Q257.6 311.4 257.3 310.7Q257.1 310.1 256.6 309.7Q256.1 309.3 255.4 309.3L255.4 309.3Q254.6 309.3 254.2 309.7Q253.7 310.0 253.4 310.7Q253.2 311.3 253.2 312.2ZM261.4 316.1L261.4 316.1Q261.0 316.1 260.8 315.8Q260.5 315.6 260.5 315.2L260.5 315.2Q260.5 314.8 260.8 314.6Q261.0 314.3 261.4 314.3L261.4 314.3Q261.8 314.3 262.0 314.6Q262.3 314.8 262.3 315.2L262.3 315.2Q262.3 315.4 262.2 315.6Q262.1 315.8 261.9 316.0Q261.7 316.1 261.4 316.1ZM265.6 316L264.4 316L264.4 308.4L265.6 308.4L265.6 316ZM265.0 307.1L265.0 307.1Q264.7 307.1 264.4 306.9Q264.2 306.6 264.2 306.3L264.2 306.3Q264.2 306.0 264.4 305.7Q264.7 305.5 265.0 305.5L265.0 305.5Q265.4 305.5 265.6 305.7Q265.8 306.0 265.8 306.3L265.8 306.3Q265.8 306.6 265.6 306.9Q265.4 307.1 265.0 307.1ZM270.8 316.2L270.8 316.2Q269.8 316.2 269.0 315.7Q268.2 315.2 267.8 314.3Q267.4 313.4 267.4 312.2L267.4 312.2Q267.4 311.0 267.8 310.1Q268.2 309.2 269.0 308.8Q269.8 308.3 270.8 308.3L270.8 308.3Q271.9 308.3 272.6 308.8Q273.4 309.2 273.9 310.1Q274.3 311.0 274.3 312.2L274.3 312.2Q274.3 313.4 273.9 314.3Q273.4 315.2 272.6 315.7Q271.9 316.2 270.8 316.2ZM270.8 315.1L270.8 315.1Q271.6 315.1 272.1 314.7Q272.6 314.3 272.9 313.6Q273.1 313.0 273.1 312.2L273.1 312.2Q273.1 311.5 272.9 310.8Q272.6 310.1 272.1 309.7Q271.6 309.3 270.8 309.3L270.8 309.3Q270.0 309.3 269.5 309.7Q269.0 310.1 268.8 310.8Q268.5 311.5 268.5 312.2L268.5 312.2Q268.5 313.0 268.8 313.6Q269.0 314.3 269.5 314.7Q270.0 315.1 270.8 315.1Z "/></g></svg>