<svg width="423" height="198" viewBox="0 0 423 198" fill="none" xmlns="http://www.w3.org/2000/svg">
<path d="M78.1875 88.6871C79.7272 88.7123 81.2669 88.7351 82.8066 88.7555C86.5386 88.81 90.269 88.8959 94 88.9996C94 91.9696 94 94.9396 94 97.9996C107.86 97.9996 121.72 97.9996 136 97.9996C136 95.0296 136 92.0596 136 88.9996C153.16 88.9996 170.32 88.9996 188 88.9996C188 92.2996 188 95.5996 188 98.9996C201.86 98.9996 215.72 98.9996 230 98.9996C230 95.6996 230 92.3996 230 88.9996C247.49 88.9996 264.98 88.9996 283 88.9996C283 91.9696 283 94.9396 283 97.9996C296.53 97.9996 310.06 97.9996 324 97.9996C324 95.0296 324 92.0596 324 88.9996C328.659 88.8998 333.317 88.8277 337.977 88.7799C339.558 88.76 341.139 88.7328 342.719 88.6979C353.999 88.4553 363.071 88.8729 372.312 96.1246C378.061 101.649 381.182 107.671 381.47 115.735C381.501 119.203 381.416 122.658 381.312 126.125C381.209 131.033 381.106 135.942 381 141C394.86 141 408.72 141 423 141C423 148.59 423 156.18 423 164C409.47 164 395.94 164 382 164C382 166.31 382 168.62 382 171C379.163 181.131 371.955 189.597 362.938 194.75C358.559 196.613 354.58 197.124 349.847 197.131C348.825 197.135 347.802 197.139 346.749 197.143C345.633 197.142 344.517 197.141 343.367 197.14C342.176 197.143 340.985 197.146 339.758 197.149C336.455 197.156 333.153 197.159 329.85 197.16C326.287 197.162 322.724 197.169 319.161 197.176C311.372 197.189 303.582 197.195 295.793 197.2C290.929 197.203 286.064 197.207 281.2 197.211C267.729 197.224 254.258 197.234 240.788 197.237C239.926 197.237 239.064 197.238 238.176 197.238C237.312 197.238 236.448 197.238 235.558 197.239C233.808 197.239 232.057 197.239 230.306 197.24C229.438 197.24 228.57 197.24 227.675 197.241C213.603 197.245 199.531 197.262 185.459 197.285C171.009 197.309 156.558 197.321 142.107 197.323C133.995 197.324 125.882 197.329 117.77 197.347C110.863 197.363 103.956 197.368 97.0489 197.36C93.5258 197.356 90.003 197.357 86.48 197.371C82.6579 197.386 78.836 197.378 75.0138 197.367C73.9044 197.375 72.7949 197.383 71.6519 197.392C62.4972 197.333 55.8077 195.55 49.0312 189.136C40.4927 180.154 39 177.475 39 164C26.13 164 13.26 164 0 164C0 156.41 0 148.82 0 141C12.21 141 24.42 141 37 141C36.8032 131.202 36.8032 131.202 36.5496 121.406C36.455 112.046 37.8032 106.064 43.8516 98.7653C54.6899 89.5026 64.5112 88.2954 78.1875 88.6871Z" fill="#EFEFF1"/>
<path d="M78.1875 88.6871C79.7272 88.7123 81.2669 88.7351 82.8066 88.7555C86.5386 88.81 90.269 88.8959 94 88.9996C94 91.9696 94 94.9396 94 97.9996C107.86 97.9996 121.72 97.9996 136 97.9996C136 95.0296 136 92.0596 136 88.9996C153.16 88.9996 170.32 88.9996 188 88.9996C188 92.2996 188 95.5996 188 98.9996C201.86 98.9996 215.72 98.9996 230 98.9996C230 95.6996 230 92.3996 230 88.9996C247.49 88.9996 264.98 88.9996 283 88.9996C283 91.9696 283 94.9396 283 97.9996C296.53 97.9996 310.06 97.9996 324 97.9996C324 95.0296 324 92.0596 324 88.9996C328.659 88.8998 333.317 88.8277 337.977 88.7799C339.558 88.76 341.139 88.7328 342.719 88.6979C353.999 88.4553 363.071 88.8729 372.312 96.1246C378.061 101.649 381.182 107.671 381.47 115.735C381.501 119.203 381.416 122.658 381.312 126.125C381.209 131.033 381.106 135.942 381 141C394.86 141 408.72 141 423 141C423 148.59 423 156.18 423 164C409.47 164 395.94 164 382 164C382 166.31 382 168.62 382 171C379.163 181.131 371.955 189.597 362.938 194.75C358.559 196.613 354.58 197.124 349.847 197.131C348.825 197.135 347.802 197.139 346.749 197.143C345.633 197.142 344.517 197.141 343.367 197.14C342.176 197.143 340.985 197.146 339.758 197.149C336.455 197.156 333.153 197.159 329.85 197.16C326.287 197.162 322.724 197.169 319.161 197.176C311.372 197.189 303.582 197.195 295.793 197.2C290.929 197.203 286.064 197.207 281.2 197.211C267.729 197.224 254.258 197.234 240.788 197.237C239.926 197.237 239.064 197.238 238.176 197.238C237.312 197.238 236.448 197.238 235.558 197.239C233.808 197.239 232.057 197.239 230.306 197.24C229.438 197.24 228.57 197.24 227.675 197.241C213.603 197.245 199.531 197.262 185.459 197.285C171.009 197.309 156.558 197.321 142.107 197.323C133.995 197.324 125.882 197.329 117.77 197.347C110.863 197.363 103.956 197.368 97.0489 197.36C93.5258 197.356 90.003 197.357 86.48 197.371C82.6579 197.386 78.836 197.378 75.0138 197.367C73.9044 197.375 72.7949 197.383 71.6519 197.392C62.4972 197.333 55.8077 195.55 49.0312 189.136C40.4927 180.154 39 177.475 39 164C26.13 164 13.26 164 0 164C0 156.41 0 148.82 0 141C12.21 141 24.42 141 37 141C36.8032 131.202 36.8032 131.202 36.5496 121.406C36.455 112.046 37.8032 106.064 43.8516 98.7653C54.6899 89.5026 64.5112 88.2954 78.1875 88.6871ZM245 103C245 106.3 245 109.6 245 113C221.57 113 198.14 113 174 113C174 110.03 174 107.06 174 104C166.41 104 158.82 104 151 104C151 106.97 151 109.94 151 113C127.24 113 103.48 113 79 113C79 110.03 79 107.06 79 104C66.0125 103.25 66.0125 103.25 54.625 108.5C51.5339 111.388 51.5339 111.388 50.8394 115.306C50.8235 116.269 50.8076 117.232 50.7913 118.225C50.772 119.316 50.7527 120.408 50.7328 121.533C50.675 126.55 50.6257 131.566 50.595 136.582C50.5734 139.223 50.5394 141.864 50.4924 144.505C50.4253 148.317 50.3979 152.128 50.3789 155.941C50.3511 157.113 50.3232 158.285 50.2946 159.493C50.3138 167.205 51.6513 172.305 57 178C57.7847 178.853 58.5694 179.707 59.3778 180.587C63.9456 184.317 69.1942 183.677 74.8315 183.608C76.0317 183.613 77.2319 183.618 78.4684 183.623C81.7922 183.631 85.1145 183.618 88.4382 183.595C92.0251 183.575 95.6119 183.584 99.1988 183.59C106.221 183.597 113.243 183.577 120.266 183.549C128.44 183.517 136.614 183.513 144.788 183.51C159.367 183.504 173.947 183.475 188.526 183.432C202.682 183.39 216.839 183.362 230.996 183.35C231.868 183.349 232.741 183.348 233.639 183.347C237.146 183.345 240.653 183.342 244.16 183.339C259.267 183.326 274.375 183.302 289.482 183.277C291.931 183.273 294.38 183.269 296.83 183.266C305.399 183.253 313.968 183.236 322.538 183.211C326.082 183.2 329.627 183.191 333.171 183.186C337.006 183.181 340.841 183.168 344.676 183.154C345.807 183.153 346.937 183.153 348.101 183.152C349.632 183.144 349.632 183.144 351.195 183.137C352.081 183.134 352.967 183.132 353.88 183.13C356.055 183.135 356.055 183.135 358 182C358 181.34 358 180.68 358 180C358.604 179.759 359.208 179.518 359.831 179.27C364.004 176.826 365.476 172.426 367 168C367.659 163.718 367.68 159.529 367.629 155.203C367.633 153.414 367.633 153.414 367.636 151.589C367.635 149.085 367.622 146.581 367.597 144.076C367.562 140.247 367.576 136.419 367.596 132.589C367.589 130.148 367.579 127.707 367.566 125.265C367.574 123.554 367.574 123.554 367.581 121.809C367.489 115.578 367.214 111.72 363 107C358.541 103.111 353.792 103.649 348.188 103.812C347.304 103.826 346.42 103.839 345.51 103.853C343.34 103.888 341.17 103.942 339 104C339 106.97 339 109.94 339 113C315.57 113 292.14 113 268 113C268 109.7 268 106.4 268 103C260.41 103 252.82 103 245 103Z" fill="#070707"/>
<path d="M83.7501 134.688C84.5493 134.693 85.3484 134.699 86.1718 134.705C95.5945 134.898 102.091 137.044 109.77 142.508C121.117 150.099 134.513 150.488 147.625 148C153.777 146.426 158.651 143.477 163.832 139.938C170.423 135.907 176.182 134.48 183.875 134.625C184.668 134.637 185.461 134.648 186.278 134.66C196.912 134.957 203.724 138.07 212.531 144.063C221.043 148.817 229.013 149.415 238.625 149.188C239.725 149.174 240.824 149.16 241.957 149.147C244.639 149.112 247.319 149.062 250 149C250 148.34 250 147.68 250 147C250.953 146.53 251.905 146.059 252.887 145.574C254.154 144.945 255.421 144.317 256.688 143.688C257.313 143.379 257.939 143.07 258.584 142.752C261.307 141.398 263.953 140.03 266.52 138.395C275.676 133.247 289.406 133.45 299.438 136.063C303.099 137.377 306.137 139.297 309.375 141.438C320.183 148.562 331.266 150.536 344 149C347.533 148.19 350.86 147.204 354.266 145.973C356.847 145.054 359.314 144.507 362 144C362.116 147.916 362.187 151.832 362.25 155.75C362.284 156.861 362.317 157.972 362.352 159.117C362.365 160.187 362.377 161.257 362.391 162.359C362.412 163.344 362.433 164.328 362.454 165.343C361.863 168.803 360.75 169.87 358 172C354.515 173.641 351.769 174.25 347.93 174.252C346.424 174.26 346.424 174.26 344.888 174.268C343.792 174.263 342.697 174.259 341.568 174.254C340.399 174.257 339.229 174.26 338.025 174.263C334.783 174.27 331.541 174.268 328.299 174.262C324.802 174.257 321.304 174.264 317.806 174.269C310.956 174.278 304.106 174.276 297.256 174.271C291.69 174.266 286.124 174.266 280.557 174.268C279.766 174.268 278.974 174.268 278.158 174.269C276.549 174.269 274.94 174.27 273.332 174.271C258.244 174.276 243.157 174.27 228.07 174.259C215.12 174.25 202.17 174.252 189.22 174.261C174.185 174.272 159.151 174.276 144.117 174.27C142.514 174.269 140.912 174.268 139.309 174.268C138.521 174.267 137.732 174.267 136.92 174.267C131.359 174.265 125.797 174.268 120.236 174.273C113.462 174.278 106.687 174.277 99.912 174.266C96.4543 174.261 92.9967 174.259 89.539 174.265C85.7943 174.271 82.0499 174.264 78.3052 174.254C76.6586 174.261 76.6586 174.261 74.9787 174.268C73.9775 174.262 72.9764 174.257 71.9449 174.252C71.0804 174.251 70.2158 174.251 69.325 174.251C66.7642 173.975 65.1664 173.38 63.0001 172C60.0575 166.541 60.4789 160.55 60.3751 154.5C60.3171 153.372 60.2591 152.244 60.1994 151.082C60.0757 143.045 60.0757 143.045 62.6144 140.176C64.6959 138.823 66.6821 137.879 69.0001 137C69.9747 136.573 70.9492 136.147 71.9533 135.707C75.9279 134.785 79.6815 134.658 83.7501 134.688Z" fill="#050505"/>
<path d="M72 1C72.5652 1.29947 73.1303 1.59893 73.7126 1.90747C75.987 2.9938 78.1867 3.75233 80.5976 4.48047C106.561 12.5488 106.561 12.5488 112.141 23.1016C114.789 28.9514 115.254 33.656 115 40C114.443 39.2987 113.886 38.5975 113.312 37.875C112.549 36.9262 111.786 35.9775 111 35C110.265 34.0332 109.53 33.0664 108.773 32.0703C106.061 28.827 103.047 27.0071 99.3125 25C98.0749 24.3239 96.838 23.6468 95.6015 22.9688C94.9947 22.64 94.3879 22.3113 93.7627 21.9727C90.3738 20.1027 87.0916 18.0545 83.793 16.0312C82.2002 14.9169 82.2002 14.9169 81 15C86.7067 19.4211 92.3826 23.6869 98.5488 27.4453C108.653 33.627 113.116 39.8504 117 51C117.454 50.175 117.907 49.35 118.375 48.5C124.511 39.3807 136.098 33.2597 145 27C142.509 27 139.605 29.7564 137.5 31.125C136.551 31.7392 136.551 31.7392 135.583 32.3657C126.132 38.4527 126.132 38.4527 117 45C117 38.3884 118.797 34.9804 123.371 30.2344C131.555 23.2785 145.181 15 156 15C154.57 25.8709 151.454 35.6686 142.723 42.7307C139.123 45.3826 135.194 47.5036 131.303 49.6934C126.35 52.5095 126.35 52.5095 123 57C122.479 59.5513 122.119 61.9227 121.875 64.5C121.797 65.2289 121.719 65.9578 121.639 66.7087C120.728 75.7807 120.358 84.8925 120 94C117.36 94 114.72 94 112 94C111.986 92.6778 111.986 92.6778 111.972 91.3289C111.927 88.0052 111.865 84.6827 111.792 81.3596C111.765 79.9314 111.743 78.5029 111.729 77.0745C111.635 62.5525 111.635 62.5525 105.213 49.9006C100.915 45.7545 95.7906 43.1444 90.543 40.3867C81.693 35.5607 76.3502 27.3454 73 18C71.6045 12.418 71.9084 6.71632 72 1Z" fill="#0D0D0D"/>
<path d="M166 1C167.943 1.96326 169.867 2.92404 171.75 4C174.139 5.1447 174.139 5.1447 177.438 5.8125C187.661 8.292 199.319 11.9193 205.402 21.1211C207.709 25.5937 209.136 29.6167 209.063 34.6875C209.054 35.4957 209.045 36.304 209.035 37.1367C209.024 37.7516 209.012 38.3665 209 39C208.526 38.34 208.051 37.68 207.563 37C200.434 28.6543 192.484 23.8407 182.793 18.9805C179.968 17.5523 177.446 16.0348 175 14C178.754 18.0262 182.691 20.9732 187.313 23.9375C188.651 24.8163 189.988 25.6965 191.324 26.5781C191.96 26.9964 192.596 27.4147 193.252 27.8457C202.852 34.1837 207.869 39.7752 211 51C211.454 50.175 211.908 49.35 212.375 48.5C217.465 40.9271 226.307 35.9605 233.797 30.9695C236.907 28.9644 236.907 28.9644 239 26C238.345 26.4963 237.69 26.9926 237.016 27.5039C231.089 31.9158 225.075 35.8438 218.629 39.457C216.275 40.8386 214.142 42.3137 212 44C211.37 39.8004 212.069 37.3932 214.438 34C222.181 24.4794 235.558 18.7579 247 15C247.99 15 248.98 15 250 15C248.546 25.7582 246.126 34.7004 237.711 41.9805C234.751 44.1857 231.69 46.0191 228.5 47.875C221.876 51.8485 217.478 55.4568 215 63C214.774 65.4166 214.646 67.8432 214.586 70.2695C214.567 70.9505 214.547 71.6315 214.527 72.3332C214.468 74.4928 214.421 76.6525 214.375 78.8125C214.337 80.2832 214.298 81.7539 214.258 83.2246C214.162 86.8162 214.078 90.408 214 94C211.69 94 209.38 94 207 94C206.986 93.2397 206.971 92.4794 206.956 91.696C206.881 88.1927 206.784 84.6903 206.688 81.1875C206.654 79.3941 206.654 79.3941 206.619 77.5645C206.299 66.8784 205.313 56.2526 197.363 48.3789C194.131 45.4554 191.238 43.2841 187 42C187 41.34 187 40.68 187 40C186.278 39.9175 185.556 39.835 184.813 39.75C177.572 37.8192 173.632 31.1311 170 25C168.716 22.05 167.783 19.1173 167 16C166.773 15.1956 166.546 14.3913 166.313 13.5625C165.803 9.3855 165.927 5.2021 166 1Z" fill="#09090A"/>
<path d="M260 0C261.031 0.7425 262.063 1.485 263.125 2.25C266.882 4.61958 270.462 5.81073 274.75 6.9375C284.531 9.56106 294.53 12.922 300 22C302.827 27.3822 303.323 31.9766 303 38C298 33 298 33 295.82 30.6094C292.489 27.5275 289.046 25.557 285.063 23.4375C280.215 20.8167 275.547 18.1306 271 15C270.01 14.34 269.02 13.68 268 13C273.887 19.4753 281.244 23.9427 288.688 28.4375C298.201 34.4203 302.505 41.3073 305 52C305.474 51.175 305.949 50.35 306.438 49.5C311.675 41.7435 319.891 36.486 327.478 31.2373C329.001 30.1798 330.503 29.0927 332 28C332 27.67 332 27.34 332 27C331.417 27.4241 330.835 27.8482 330.234 28.2852C324.553 32.3498 318.747 35.9873 312.664 39.4219C310.304 40.8201 308.154 42.3056 306 44C306.27 37.533 308.436 33.5833 313 29C320.074 23.4552 328.94 20.1301 337.121 16.5391C337.796 16.2421 338.471 15.9451 339.166 15.6392C341 15 341 15 344 15C343.524 22.254 341.705 28.2681 339 35C338.34 35 337.68 35 337 35C336.729 35.602 336.459 36.204 336.18 36.8242C333.127 42.4538 327.299 45.4738 321.875 48.5C315.887 51.9133 312.174 54.5053 309.909 61.2483C309.012 64.9522 308.687 68.2248 308.586 72.0273C308.547 73.3132 308.509 74.599 308.469 75.9238C308.437 77.2617 308.406 78.5996 308.375 79.9375C308.337 81.3028 308.298 82.668 308.258 84.0332C308.164 87.3553 308.078 90.6775 308 94C305.69 94 303.38 94 301 94C300.97 92.7984 300.97 92.7984 300.94 91.5725C300.844 87.9022 300.735 84.2324 300.625 80.5625C300.594 79.3024 300.563 78.0424 300.531 76.7441C300.19 65.8452 299.669 56.3463 292 48C288.831 45.651 285.506 43.7974 282 42C270.484 36.0576 265.524 27.8491 261 16C259.764 10.6863 259.904 5.42158 260 0Z" fill="#080808"/>
</svg>
